<mxfile host="Electron" modified="2024-09-23T16:09:08.526Z" agent="Mozilla/5.0 (Macintosh; Intel Mac OS X 10_15_7) AppleWebKit/537.36 (KHTML, like Gecko) draw.io/24.2.5 Chrome/120.0.6099.109 Electron/28.1.0 Safari/537.36" etag="v7di0KhQVam4apXwC_gM" version="24.2.5" type="device" pages="3">
  <diagram name="single-region-basic" id="pZJN4DpcNwUekFRrbJgS">
    <mxGraphModel dx="2924" dy="2314" grid="1" gridSize="10" guides="1" tooltips="1" connect="1" arrows="1" fold="1" page="1" pageScale="1" pageWidth="850" pageHeight="1100" math="0" shadow="0">
      <root>
        <mxCell id="0" />
        <mxCell id="1" parent="0" />
        <mxCell id="i1JZFnTnfweJTT1TfMiN-49" style="edgeStyle=orthogonalEdgeStyle;rounded=0;orthogonalLoop=1;jettySize=auto;html=1;startArrow=classic;startFill=1;dashed=1;endArrow=none;endFill=0;" parent="1" source="i1JZFnTnfweJTT1TfMiN-1" target="i1JZFnTnfweJTT1TfMiN-10" edge="1">
          <mxGeometry relative="1" as="geometry" />
        </mxCell>
        <mxCell id="i1JZFnTnfweJTT1TfMiN-1" value="Management Account" style="points=[[0,0],[0.25,0],[0.5,0],[0.75,0],[1,0],[1,0.25],[1,0.5],[1,0.75],[1,1],[0.75,1],[0.5,1],[0.25,1],[0,1],[0,0.75],[0,0.5],[0,0.25]];outlineConnect=0;gradientColor=none;html=1;whiteSpace=wrap;fontSize=12;fontStyle=0;container=1;pointerEvents=0;collapsible=0;recursiveResize=0;shape=mxgraph.aws4.group;grIcon=mxgraph.aws4.group_account;strokeColor=#CD2264;fillColor=none;verticalAlign=top;align=left;spacingLeft=30;fontColor=#CD2264;dashed=0;" parent="1" vertex="1">
          <mxGeometry x="300" y="30" width="240" height="150" as="geometry" />
        </mxCell>
        <mxCell id="i1JZFnTnfweJTT1TfMiN-2" value="AWS Control Tower" style="sketch=0;points=[[0,0,0],[0.25,0,0],[0.5,0,0],[0.75,0,0],[1,0,0],[0,1,0],[0.25,1,0],[0.5,1,0],[0.75,1,0],[1,1,0],[0,0.25,0],[0,0.5,0],[0,0.75,0],[1,0.25,0],[1,0.5,0],[1,0.75,0]];points=[[0,0,0],[0.25,0,0],[0.5,0,0],[0.75,0,0],[1,0,0],[0,1,0],[0.25,1,0],[0.5,1,0],[0.75,1,0],[1,1,0],[0,0.25,0],[0,0.5,0],[0,0.75,0],[1,0.25,0],[1,0.5,0],[1,0.75,0]];outlineConnect=0;fontColor=#232F3E;fillColor=#E7157B;strokeColor=#ffffff;dashed=0;verticalLabelPosition=bottom;verticalAlign=top;align=center;html=1;fontSize=12;fontStyle=0;aspect=fixed;shape=mxgraph.aws4.resourceIcon;resIcon=mxgraph.aws4.control_tower;" parent="i1JZFnTnfweJTT1TfMiN-1" vertex="1">
          <mxGeometry x="30" y="45" width="60" height="60" as="geometry" />
        </mxCell>
        <mxCell id="h4vDvT6IPbarKjSMEtqA-1" value="AWS Organizations" style="sketch=0;points=[[0,0,0],[0.25,0,0],[0.5,0,0],[0.75,0,0],[1,0,0],[0,1,0],[0.25,1,0],[0.5,1,0],[0.75,1,0],[1,1,0],[0,0.25,0],[0,0.5,0],[0,0.75,0],[1,0.25,0],[1,0.5,0],[1,0.75,0]];points=[[0,0,0],[0.25,0,0],[0.5,0,0],[0.75,0,0],[1,0,0],[0,1,0],[0.25,1,0],[0.5,1,0],[0.75,1,0],[1,1,0],[0,0.25,0],[0,0.5,0],[0,0.75,0],[1,0.25,0],[1,0.5,0],[1,0.75,0]];outlineConnect=0;fontColor=#232F3E;fillColor=#E7157B;strokeColor=#ffffff;dashed=0;verticalLabelPosition=bottom;verticalAlign=top;align=center;html=1;fontSize=12;fontStyle=0;aspect=fixed;shape=mxgraph.aws4.resourceIcon;resIcon=mxgraph.aws4.organizations;" vertex="1" parent="i1JZFnTnfweJTT1TfMiN-1">
          <mxGeometry x="150" y="45" width="60" height="60" as="geometry" />
        </mxCell>
        <mxCell id="i1JZFnTnfweJTT1TfMiN-4" value="Audit Account" style="points=[[0,0],[0.25,0],[0.5,0],[0.75,0],[1,0],[1,0.25],[1,0.5],[1,0.75],[1,1],[0.75,1],[0.5,1],[0.25,1],[0,1],[0,0.75],[0,0.5],[0,0.25]];outlineConnect=0;gradientColor=none;html=1;whiteSpace=wrap;fontSize=12;fontStyle=0;container=1;pointerEvents=0;collapsible=0;recursiveResize=0;shape=mxgraph.aws4.group;grIcon=mxgraph.aws4.group_account;strokeColor=#CD2264;fillColor=none;verticalAlign=top;align=left;spacingLeft=30;fontColor=#CD2264;dashed=0;" parent="1" vertex="1">
          <mxGeometry x="100" y="30" width="170" height="150" as="geometry" />
        </mxCell>
        <mxCell id="i1JZFnTnfweJTT1TfMiN-42" value="AWS Config" style="sketch=0;points=[[0,0,0],[0.25,0,0],[0.5,0,0],[0.75,0,0],[1,0,0],[0,1,0],[0.25,1,0],[0.5,1,0],[0.75,1,0],[1,1,0],[0,0.25,0],[0,0.5,0],[0,0.75,0],[1,0.25,0],[1,0.5,0],[1,0.75,0]];points=[[0,0,0],[0.25,0,0],[0.5,0,0],[0.75,0,0],[1,0,0],[0,1,0],[0.25,1,0],[0.5,1,0],[0.75,1,0],[1,1,0],[0,0.25,0],[0,0.5,0],[0,0.75,0],[1,0.25,0],[1,0.5,0],[1,0.75,0]];outlineConnect=0;fontColor=#232F3E;fillColor=#E7157B;strokeColor=#ffffff;dashed=0;verticalLabelPosition=bottom;verticalAlign=top;align=center;html=1;fontSize=12;fontStyle=0;aspect=fixed;shape=mxgraph.aws4.resourceIcon;resIcon=mxgraph.aws4.config;" parent="i1JZFnTnfweJTT1TfMiN-4" vertex="1">
          <mxGeometry x="46" y="36" width="78" height="78" as="geometry" />
        </mxCell>
        <mxCell id="i1JZFnTnfweJTT1TfMiN-6" value="Log Archive Account" style="points=[[0,0],[0.25,0],[0.5,0],[0.75,0],[1,0],[1,0.25],[1,0.5],[1,0.75],[1,1],[0.75,1],[0.5,1],[0.25,1],[0,1],[0,0.75],[0,0.5],[0,0.25]];outlineConnect=0;gradientColor=none;html=1;whiteSpace=wrap;fontSize=12;fontStyle=0;container=1;pointerEvents=0;collapsible=0;recursiveResize=0;shape=mxgraph.aws4.group;grIcon=mxgraph.aws4.group_account;strokeColor=#CD2264;fillColor=none;verticalAlign=top;align=left;spacingLeft=30;fontColor=#CD2264;dashed=0;" parent="1" vertex="1">
          <mxGeometry x="570" y="30" width="170" height="150" as="geometry" />
        </mxCell>
        <mxCell id="i1JZFnTnfweJTT1TfMiN-8" value="Logs" style="sketch=0;outlineConnect=0;fontColor=#232F3E;gradientColor=none;fillColor=#7AA116;strokeColor=none;dashed=0;verticalLabelPosition=bottom;verticalAlign=top;align=center;html=1;fontSize=12;fontStyle=0;aspect=fixed;pointerEvents=1;shape=mxgraph.aws4.bucket_with_objects;" parent="i1JZFnTnfweJTT1TfMiN-6" vertex="1">
          <mxGeometry x="47.5" y="36" width="75" height="78" as="geometry" />
        </mxCell>
        <mxCell id="i1JZFnTnfweJTT1TfMiN-9" value="Identity Account" style="points=[[0,0],[0.25,0],[0.5,0],[0.75,0],[1,0],[1,0.25],[1,0.5],[1,0.75],[1,1],[0.75,1],[0.5,1],[0.25,1],[0,1],[0,0.75],[0,0.5],[0,0.25]];outlineConnect=0;gradientColor=none;html=1;whiteSpace=wrap;fontSize=12;fontStyle=0;container=1;pointerEvents=0;collapsible=0;recursiveResize=0;shape=mxgraph.aws4.group;grIcon=mxgraph.aws4.group_account;strokeColor=#CD2264;fillColor=none;verticalAlign=top;align=left;spacingLeft=30;fontColor=#CD2264;dashed=0;" parent="1" vertex="1">
          <mxGeometry x="25" y="250" width="250" height="210" as="geometry" />
        </mxCell>
        <mxCell id="f0rVhy6eqY9SJm2_RnG6-1" value="Primary Region" style="points=[[0,0],[0.25,0],[0.5,0],[0.75,0],[1,0],[1,0.25],[1,0.5],[1,0.75],[1,1],[0.75,1],[0.5,1],[0.25,1],[0,1],[0,0.75],[0,0.5],[0,0.25]];outlineConnect=0;gradientColor=none;html=1;whiteSpace=wrap;fontSize=12;fontStyle=0;container=1;pointerEvents=0;collapsible=0;recursiveResize=0;shape=mxgraph.aws4.group;grIcon=mxgraph.aws4.group_region;strokeColor=#00A4A6;fillColor=none;verticalAlign=top;align=left;spacingLeft=30;fontColor=#147EBA;dashed=1;" parent="i1JZFnTnfweJTT1TfMiN-9" vertex="1">
          <mxGeometry x="20" y="30" width="210" height="160" as="geometry" />
        </mxCell>
        <mxCell id="i1JZFnTnfweJTT1TfMiN-17" value="AWS IAM Identity Center&lt;div&gt;(identity management)&lt;/div&gt;" style="sketch=0;points=[[0,0,0],[0.25,0,0],[0.5,0,0],[0.75,0,0],[1,0,0],[0,1,0],[0.25,1,0],[0.5,1,0],[0.75,1,0],[1,1,0],[0,0.25,0],[0,0.5,0],[0,0.75,0],[1,0.25,0],[1,0.5,0],[1,0.75,0]];outlineConnect=0;fontColor=#232F3E;fillColor=#DD344C;strokeColor=#ffffff;dashed=0;verticalLabelPosition=bottom;verticalAlign=top;align=center;html=1;fontSize=12;fontStyle=0;aspect=fixed;shape=mxgraph.aws4.resourceIcon;resIcon=mxgraph.aws4.single_sign_on;" parent="f0rVhy6eqY9SJm2_RnG6-1" vertex="1">
          <mxGeometry x="66" y="33.019999999999996" width="78" height="78" as="geometry" />
        </mxCell>
        <mxCell id="i1JZFnTnfweJTT1TfMiN-43" style="edgeStyle=orthogonalEdgeStyle;rounded=0;orthogonalLoop=1;jettySize=auto;html=1;entryX=1;entryY=0.5;entryDx=0;entryDy=0;" parent="1" source="i1JZFnTnfweJTT1TfMiN-10" target="i1JZFnTnfweJTT1TfMiN-9" edge="1">
          <mxGeometry relative="1" as="geometry" />
        </mxCell>
        <mxCell id="i1JZFnTnfweJTT1TfMiN-44" style="edgeStyle=orthogonalEdgeStyle;rounded=0;orthogonalLoop=1;jettySize=auto;html=1;" parent="1" source="i1JZFnTnfweJTT1TfMiN-10" target="i1JZFnTnfweJTT1TfMiN-11" edge="1">
          <mxGeometry relative="1" as="geometry" />
        </mxCell>
        <mxCell id="i1JZFnTnfweJTT1TfMiN-45" style="edgeStyle=orthogonalEdgeStyle;rounded=0;orthogonalLoop=1;jettySize=auto;html=1;entryX=1;entryY=0.5;entryDx=0;entryDy=0;" parent="1" source="i1JZFnTnfweJTT1TfMiN-10" target="i1JZFnTnfweJTT1TfMiN-12" edge="1">
          <mxGeometry relative="1" as="geometry" />
        </mxCell>
        <mxCell id="i1JZFnTnfweJTT1TfMiN-46" style="edgeStyle=orthogonalEdgeStyle;rounded=0;orthogonalLoop=1;jettySize=auto;html=1;entryX=0;entryY=0.5;entryDx=0;entryDy=0;" parent="1" source="i1JZFnTnfweJTT1TfMiN-10" target="f0rVhy6eqY9SJm2_RnG6-13" edge="1">
          <mxGeometry relative="1" as="geometry">
            <mxPoint x="645" y="590" as="targetPoint" />
          </mxGeometry>
        </mxCell>
        <mxCell id="i1JZFnTnfweJTT1TfMiN-47" style="edgeStyle=orthogonalEdgeStyle;rounded=0;orthogonalLoop=1;jettySize=auto;html=1;entryX=0;entryY=0.5;entryDx=0;entryDy=0;" parent="1" source="i1JZFnTnfweJTT1TfMiN-10" target="i1JZFnTnfweJTT1TfMiN-13" edge="1">
          <mxGeometry relative="1" as="geometry" />
        </mxCell>
        <mxCell id="i1JZFnTnfweJTT1TfMiN-50" style="edgeStyle=orthogonalEdgeStyle;rounded=0;orthogonalLoop=1;jettySize=auto;html=1;entryX=0.5;entryY=1;entryDx=0;entryDy=0;dashed=1;" parent="1" source="i1JZFnTnfweJTT1TfMiN-10" target="i1JZFnTnfweJTT1TfMiN-4" edge="1">
          <mxGeometry relative="1" as="geometry">
            <Array as="points">
              <mxPoint x="370" y="220" />
              <mxPoint x="185" y="220" />
            </Array>
          </mxGeometry>
        </mxCell>
        <mxCell id="i1JZFnTnfweJTT1TfMiN-51" style="edgeStyle=orthogonalEdgeStyle;rounded=0;orthogonalLoop=1;jettySize=auto;html=1;entryX=0.5;entryY=1;entryDx=0;entryDy=0;dashed=1;" parent="1" source="i1JZFnTnfweJTT1TfMiN-10" target="i1JZFnTnfweJTT1TfMiN-6" edge="1">
          <mxGeometry relative="1" as="geometry">
            <Array as="points">
              <mxPoint x="460" y="220" />
              <mxPoint x="655" y="220" />
            </Array>
          </mxGeometry>
        </mxCell>
        <mxCell id="f0rVhy6eqY9SJm2_RnG6-29" style="edgeStyle=orthogonalEdgeStyle;rounded=0;orthogonalLoop=1;jettySize=auto;html=1;entryX=0;entryY=0.5;entryDx=0;entryDy=0;" parent="1" source="i1JZFnTnfweJTT1TfMiN-10" target="f0rVhy6eqY9SJm2_RnG6-21" edge="1">
          <mxGeometry relative="1" as="geometry" />
        </mxCell>
        <mxCell id="i1JZFnTnfweJTT1TfMiN-10" value="AFT Account" style="points=[[0,0],[0.25,0],[0.5,0],[0.75,0],[1,0],[1,0.25],[1,0.5],[1,0.75],[1,1],[0.75,1],[0.5,1],[0.25,1],[0,1],[0,0.75],[0,0.5],[0,0.25]];outlineConnect=0;gradientColor=none;html=1;whiteSpace=wrap;fontSize=12;fontStyle=0;container=1;pointerEvents=0;collapsible=0;recursiveResize=0;shape=mxgraph.aws4.group;grIcon=mxgraph.aws4.group_account;strokeColor=#CD2264;fillColor=none;verticalAlign=top;align=left;spacingLeft=30;fontColor=#CD2264;dashed=0;" parent="1" vertex="1">
          <mxGeometry x="335" y="515" width="170" height="150" as="geometry" />
        </mxCell>
        <mxCell id="i1JZFnTnfweJTT1TfMiN-16" value="Account Factory for Terraform" style="sketch=0;points=[[0,0,0],[0.25,0,0],[0.5,0,0],[0.75,0,0],[1,0,0],[0,1,0],[0.25,1,0],[0.5,1,0],[0.75,1,0],[1,1,0],[0,0.25,0],[0,0.5,0],[0,0.75,0],[1,0.25,0],[1,0.5,0],[1,0.75,0]];gradientDirection=north;outlineConnect=0;fontColor=#232F3E;gradientColor=none;fillColor=#1E262E;strokeColor=#ffffff;dashed=0;verticalLabelPosition=bottom;verticalAlign=top;align=center;html=1;fontSize=12;fontStyle=0;aspect=fixed;shape=mxgraph.aws4.resourceIcon;resIcon=mxgraph.aws4.general;" parent="i1JZFnTnfweJTT1TfMiN-10" vertex="1">
          <mxGeometry x="46" y="36" width="78" height="78" as="geometry" />
        </mxCell>
        <mxCell id="tpZAM4rhU2kkm5Ws_BnL-1" style="edgeStyle=orthogonalEdgeStyle;rounded=0;orthogonalLoop=1;jettySize=auto;html=1;startArrow=classic;startFill=1;endArrow=none;endFill=0;dashed=1;dashPattern=12 12;" edge="1" parent="1" source="i1JZFnTnfweJTT1TfMiN-18">
          <mxGeometry relative="1" as="geometry">
            <mxPoint x="-10" y="360" as="targetPoint" />
          </mxGeometry>
        </mxCell>
        <mxCell id="i1JZFnTnfweJTT1TfMiN-11" value="Backup Account" style="points=[[0,0],[0.25,0],[0.5,0],[0.75,0],[1,0],[1,0.25],[1,0.5],[1,0.75],[1,1],[0.75,1],[0.5,1],[0.25,1],[0,1],[0,0.75],[0,0.5],[0,0.25]];outlineConnect=0;gradientColor=none;html=1;whiteSpace=wrap;fontSize=12;fontStyle=0;container=1;pointerEvents=0;collapsible=0;recursiveResize=0;shape=mxgraph.aws4.group;grIcon=mxgraph.aws4.group_account;strokeColor=#CD2264;fillColor=none;verticalAlign=top;align=left;spacingLeft=30;fontColor=#CD2264;dashed=0;" parent="1" vertex="1">
          <mxGeometry x="25" y="485" width="250" height="210" as="geometry" />
        </mxCell>
        <mxCell id="f0rVhy6eqY9SJm2_RnG6-4" value="Primary Region" style="points=[[0,0],[0.25,0],[0.5,0],[0.75,0],[1,0],[1,0.25],[1,0.5],[1,0.75],[1,1],[0.75,1],[0.5,1],[0.25,1],[0,1],[0,0.75],[0,0.5],[0,0.25]];outlineConnect=0;gradientColor=none;html=1;whiteSpace=wrap;fontSize=12;fontStyle=0;container=1;pointerEvents=0;collapsible=0;recursiveResize=0;shape=mxgraph.aws4.group;grIcon=mxgraph.aws4.group_region;strokeColor=#00A4A6;fillColor=none;verticalAlign=top;align=left;spacingLeft=30;fontColor=#147EBA;dashed=1;" parent="i1JZFnTnfweJTT1TfMiN-11" vertex="1">
          <mxGeometry x="20" y="30.9" width="210" height="160" as="geometry" />
        </mxCell>
        <mxCell id="i1JZFnTnfweJTT1TfMiN-18" value="AWS Backup&lt;div&gt;(centralized backup)&lt;/div&gt;" style="sketch=0;points=[[0,0,0],[0.25,0,0],[0.5,0,0],[0.75,0,0],[1,0,0],[0,1,0],[0.25,1,0],[0.5,1,0],[0.75,1,0],[1,1,0],[0,0.25,0],[0,0.5,0],[0,0.75,0],[1,0.25,0],[1,0.5,0],[1,0.75,0]];outlineConnect=0;fontColor=#232F3E;fillColor=#7AA116;strokeColor=#ffffff;dashed=0;verticalLabelPosition=bottom;verticalAlign=top;align=center;html=1;fontSize=12;fontStyle=0;aspect=fixed;shape=mxgraph.aws4.resourceIcon;resIcon=mxgraph.aws4.backup;" parent="f0rVhy6eqY9SJm2_RnG6-4" vertex="1">
          <mxGeometry x="66" y="34.129999999999995" width="78" height="78" as="geometry" />
        </mxCell>
        <mxCell id="i1JZFnTnfweJTT1TfMiN-12" value="Network Account" style="points=[[0,0],[0.25,0],[0.5,0],[0.75,0],[1,0],[1,0.25],[1,0.5],[1,0.75],[1,1],[0.75,1],[0.5,1],[0.25,1],[0,1],[0,0.75],[0,0.5],[0,0.25]];outlineConnect=0;gradientColor=none;html=1;whiteSpace=wrap;fontSize=12;fontStyle=0;container=1;pointerEvents=0;collapsible=0;recursiveResize=0;shape=mxgraph.aws4.group;grIcon=mxgraph.aws4.group_account;strokeColor=#CD2264;fillColor=none;verticalAlign=top;align=left;spacingLeft=30;fontColor=#CD2264;dashed=0;" parent="1" vertex="1">
          <mxGeometry x="25" y="720" width="250" height="210" as="geometry" />
        </mxCell>
        <mxCell id="f0rVhy6eqY9SJm2_RnG6-6" value="Primary Region" style="points=[[0,0],[0.25,0],[0.5,0],[0.75,0],[1,0],[1,0.25],[1,0.5],[1,0.75],[1,1],[0.75,1],[0.5,1],[0.25,1],[0,1],[0,0.75],[0,0.5],[0,0.25]];outlineConnect=0;gradientColor=none;html=1;whiteSpace=wrap;fontSize=12;fontStyle=0;container=1;pointerEvents=0;collapsible=0;recursiveResize=0;shape=mxgraph.aws4.group;grIcon=mxgraph.aws4.group_region;strokeColor=#00A4A6;fillColor=none;verticalAlign=top;align=left;spacingLeft=30;fontColor=#147EBA;dashed=1;" parent="i1JZFnTnfweJTT1TfMiN-12" vertex="1">
          <mxGeometry x="20" y="30" width="210" height="160" as="geometry" />
        </mxCell>
        <mxCell id="2bZRXMCf6SW7HkjX8VzF-1" value="Transit Gateway&lt;div&gt;(network routing)&lt;/div&gt;" style="sketch=0;points=[[0,0,0],[0.25,0,0],[0.5,0,0],[0.75,0,0],[1,0,0],[0,1,0],[0.25,1,0],[0.5,1,0],[0.75,1,0],[1,1,0],[0,0.25,0],[0,0.5,0],[0,0.75,0],[1,0.25,0],[1,0.5,0],[1,0.75,0]];outlineConnect=0;fontColor=#232F3E;fillColor=#8C4FFF;strokeColor=#ffffff;dashed=0;verticalLabelPosition=bottom;verticalAlign=top;align=center;html=1;fontSize=12;fontStyle=0;aspect=fixed;shape=mxgraph.aws4.resourceIcon;resIcon=mxgraph.aws4.transit_gateway;" parent="f0rVhy6eqY9SJm2_RnG6-6" vertex="1">
          <mxGeometry x="25" y="50" width="60" height="60" as="geometry" />
        </mxCell>
        <mxCell id="2bZRXMCf6SW7HkjX8VzF-2" value="NAT Gateway&lt;div&gt;(centralized egress)&lt;/div&gt;" style="sketch=0;outlineConnect=0;fontColor=#232F3E;fillColor=#8C4FFF;strokeColor=none;dashed=0;verticalLabelPosition=bottom;verticalAlign=top;align=center;html=1;fontSize=12;fontStyle=0;aspect=fixed;shape=mxgraph.aws4.nat_gateway;resIcon=mxgraph.aws4.network_firewall;gradientColor=none;pointerEvents=1;" parent="f0rVhy6eqY9SJm2_RnG6-6" vertex="1">
          <mxGeometry x="125" y="50" width="60" height="60" as="geometry" />
        </mxCell>
        <mxCell id="i1JZFnTnfweJTT1TfMiN-13" value="Production Account" style="points=[[0,0],[0.25,0],[0.5,0],[0.75,0],[1,0],[1,0.25],[1,0.5],[1,0.75],[1,1],[0.75,1],[0.5,1],[0.25,1],[0,1],[0,0.75],[0,0.5],[0,0.25]];outlineConnect=0;gradientColor=none;html=1;whiteSpace=wrap;fontSize=12;fontStyle=0;container=1;pointerEvents=0;collapsible=0;recursiveResize=0;shape=mxgraph.aws4.group;grIcon=mxgraph.aws4.group_account;strokeColor=#CD2264;fillColor=none;verticalAlign=top;align=left;spacingLeft=30;fontColor=#CD2264;dashed=0;" parent="1" vertex="1">
          <mxGeometry x="575" y="255" width="250" height="200" as="geometry" />
        </mxCell>
        <mxCell id="f0rVhy6eqY9SJm2_RnG6-11" value="Primary Region" style="points=[[0,0],[0.25,0],[0.5,0],[0.75,0],[1,0],[1,0.25],[1,0.5],[1,0.75],[1,1],[0.75,1],[0.5,1],[0.25,1],[0,1],[0,0.75],[0,0.5],[0,0.25]];outlineConnect=0;gradientColor=none;html=1;whiteSpace=wrap;fontSize=12;fontStyle=0;container=1;pointerEvents=0;collapsible=0;recursiveResize=0;shape=mxgraph.aws4.group;grIcon=mxgraph.aws4.group_region;strokeColor=#00A4A6;fillColor=none;verticalAlign=top;align=left;spacingLeft=30;fontColor=#147EBA;dashed=1;" parent="i1JZFnTnfweJTT1TfMiN-13" vertex="1">
          <mxGeometry x="20" y="30" width="210" height="150" as="geometry" />
        </mxCell>
        <mxCell id="i1JZFnTnfweJTT1TfMiN-20" value="" style="sketch=0;points=[[0,0,0],[0.25,0,0],[0.5,0,0],[0.75,0,0],[1,0,0],[0,1,0],[0.25,1,0],[0.5,1,0],[0.75,1,0],[1,1,0],[0,0.25,0],[0,0.5,0],[0,0.75,0],[1,0.25,0],[1,0.5,0],[1,0.75,0]];outlineConnect=0;fontColor=#232F3E;fillColor=#8C4FFF;strokeColor=#ffffff;dashed=0;verticalLabelPosition=bottom;verticalAlign=top;align=center;html=1;fontSize=12;fontStyle=0;aspect=fixed;shape=mxgraph.aws4.resourceIcon;resIcon=mxgraph.aws4.vpc;" parent="f0rVhy6eqY9SJm2_RnG6-11" vertex="1">
          <mxGeometry x="23.75" y="34.02999999999997" width="40" height="40" as="geometry" />
        </mxCell>
        <mxCell id="i1JZFnTnfweJTT1TfMiN-22" value="" style="sketch=0;outlineConnect=0;fontColor=#232F3E;gradientColor=none;fillColor=#7AA116;strokeColor=none;dashed=0;verticalLabelPosition=bottom;verticalAlign=top;align=center;html=1;fontSize=12;fontStyle=0;aspect=fixed;pointerEvents=1;shape=mxgraph.aws4.backup_vault;" parent="f0rVhy6eqY9SJm2_RnG6-11" vertex="1">
          <mxGeometry x="83.75" y="34.02999999999997" width="40" height="40" as="geometry" />
        </mxCell>
        <mxCell id="i1JZFnTnfweJTT1TfMiN-23" value="" style="sketch=0;outlineConnect=0;fontColor=#232F3E;gradientColor=none;fillColor=#8C4FFF;strokeColor=none;dashed=0;verticalLabelPosition=bottom;verticalAlign=top;align=center;html=1;fontSize=12;fontStyle=0;aspect=fixed;pointerEvents=1;shape=mxgraph.aws4.hosted_zone;" parent="f0rVhy6eqY9SJm2_RnG6-11" vertex="1">
          <mxGeometry x="23.75" y="92.5" width="40" height="39.49" as="geometry" />
        </mxCell>
        <mxCell id="i1JZFnTnfweJTT1TfMiN-21" value="" style="sketch=0;outlineConnect=0;fontColor=#232F3E;gradientColor=none;fillColor=#DD344C;strokeColor=none;dashed=0;verticalLabelPosition=bottom;verticalAlign=top;align=center;html=1;fontSize=12;fontStyle=0;aspect=fixed;pointerEvents=1;shape=mxgraph.aws4.role;" parent="f0rVhy6eqY9SJm2_RnG6-11" vertex="1">
          <mxGeometry x="141.25" y="99.54999999999995" width="45" height="25.38" as="geometry" />
        </mxCell>
        <mxCell id="i1JZFnTnfweJTT1TfMiN-26" value="" style="sketch=0;outlineConnect=0;fontColor=#232F3E;gradientColor=none;fillColor=#DD344C;strokeColor=none;dashed=0;verticalLabelPosition=bottom;verticalAlign=top;align=center;html=1;fontSize=12;fontStyle=0;aspect=fixed;pointerEvents=1;shape=mxgraph.aws4.data_encryption_key;" parent="f0rVhy6eqY9SJm2_RnG6-11" vertex="1">
          <mxGeometry x="146.25" y="30" width="35" height="44.03" as="geometry" />
        </mxCell>
        <mxCell id="i1JZFnTnfweJTT1TfMiN-27" value="" style="sketch=0;outlineConnect=0;fontColor=#232F3E;gradientColor=none;fillColor=#7AA116;strokeColor=none;dashed=0;verticalLabelPosition=bottom;verticalAlign=top;align=center;html=1;fontSize=12;fontStyle=0;aspect=fixed;pointerEvents=1;shape=mxgraph.aws4.bucket;" parent="f0rVhy6eqY9SJm2_RnG6-11" vertex="1">
          <mxGeometry x="88.75" y="94.03999999999996" width="35" height="36.4" as="geometry" />
        </mxCell>
        <mxCell id="f0rVhy6eqY9SJm2_RnG6-13" value="Stage Account" style="points=[[0,0],[0.25,0],[0.5,0],[0.75,0],[1,0],[1,0.25],[1,0.5],[1,0.75],[1,1],[0.75,1],[0.5,1],[0.25,1],[0,1],[0,0.75],[0,0.5],[0,0.25]];outlineConnect=0;gradientColor=none;html=1;whiteSpace=wrap;fontSize=12;fontStyle=0;container=1;pointerEvents=0;collapsible=0;recursiveResize=0;shape=mxgraph.aws4.group;grIcon=mxgraph.aws4.group_account;strokeColor=#CD2264;fillColor=none;verticalAlign=top;align=left;spacingLeft=30;fontColor=#CD2264;dashed=0;" parent="1" vertex="1">
          <mxGeometry x="575" y="490" width="250" height="200" as="geometry" />
        </mxCell>
        <mxCell id="f0rVhy6eqY9SJm2_RnG6-14" value="Primary Region" style="points=[[0,0],[0.25,0],[0.5,0],[0.75,0],[1,0],[1,0.25],[1,0.5],[1,0.75],[1,1],[0.75,1],[0.5,1],[0.25,1],[0,1],[0,0.75],[0,0.5],[0,0.25]];outlineConnect=0;gradientColor=none;html=1;whiteSpace=wrap;fontSize=12;fontStyle=0;container=1;pointerEvents=0;collapsible=0;recursiveResize=0;shape=mxgraph.aws4.group;grIcon=mxgraph.aws4.group_region;strokeColor=#00A4A6;fillColor=none;verticalAlign=top;align=left;spacingLeft=30;fontColor=#147EBA;dashed=1;" parent="f0rVhy6eqY9SJm2_RnG6-13" vertex="1">
          <mxGeometry x="20" y="30" width="210" height="150" as="geometry" />
        </mxCell>
        <mxCell id="f0rVhy6eqY9SJm2_RnG6-15" value="" style="sketch=0;points=[[0,0,0],[0.25,0,0],[0.5,0,0],[0.75,0,0],[1,0,0],[0,1,0],[0.25,1,0],[0.5,1,0],[0.75,1,0],[1,1,0],[0,0.25,0],[0,0.5,0],[0,0.75,0],[1,0.25,0],[1,0.5,0],[1,0.75,0]];outlineConnect=0;fontColor=#232F3E;fillColor=#8C4FFF;strokeColor=#ffffff;dashed=0;verticalLabelPosition=bottom;verticalAlign=top;align=center;html=1;fontSize=12;fontStyle=0;aspect=fixed;shape=mxgraph.aws4.resourceIcon;resIcon=mxgraph.aws4.vpc;" parent="f0rVhy6eqY9SJm2_RnG6-14" vertex="1">
          <mxGeometry x="23.75" y="34.02999999999997" width="40" height="40" as="geometry" />
        </mxCell>
        <mxCell id="f0rVhy6eqY9SJm2_RnG6-16" value="" style="sketch=0;outlineConnect=0;fontColor=#232F3E;gradientColor=none;fillColor=#7AA116;strokeColor=none;dashed=0;verticalLabelPosition=bottom;verticalAlign=top;align=center;html=1;fontSize=12;fontStyle=0;aspect=fixed;pointerEvents=1;shape=mxgraph.aws4.backup_vault;" parent="f0rVhy6eqY9SJm2_RnG6-14" vertex="1">
          <mxGeometry x="83.75" y="34.02999999999997" width="40" height="40" as="geometry" />
        </mxCell>
        <mxCell id="f0rVhy6eqY9SJm2_RnG6-17" value="" style="sketch=0;outlineConnect=0;fontColor=#232F3E;gradientColor=none;fillColor=#8C4FFF;strokeColor=none;dashed=0;verticalLabelPosition=bottom;verticalAlign=top;align=center;html=1;fontSize=12;fontStyle=0;aspect=fixed;pointerEvents=1;shape=mxgraph.aws4.hosted_zone;" parent="f0rVhy6eqY9SJm2_RnG6-14" vertex="1">
          <mxGeometry x="23.75" y="92.5" width="40" height="39.49" as="geometry" />
        </mxCell>
        <mxCell id="f0rVhy6eqY9SJm2_RnG6-18" value="" style="sketch=0;outlineConnect=0;fontColor=#232F3E;gradientColor=none;fillColor=#DD344C;strokeColor=none;dashed=0;verticalLabelPosition=bottom;verticalAlign=top;align=center;html=1;fontSize=12;fontStyle=0;aspect=fixed;pointerEvents=1;shape=mxgraph.aws4.role;" parent="f0rVhy6eqY9SJm2_RnG6-14" vertex="1">
          <mxGeometry x="141.25" y="99.54999999999995" width="45" height="25.38" as="geometry" />
        </mxCell>
        <mxCell id="f0rVhy6eqY9SJm2_RnG6-19" value="" style="sketch=0;outlineConnect=0;fontColor=#232F3E;gradientColor=none;fillColor=#DD344C;strokeColor=none;dashed=0;verticalLabelPosition=bottom;verticalAlign=top;align=center;html=1;fontSize=12;fontStyle=0;aspect=fixed;pointerEvents=1;shape=mxgraph.aws4.data_encryption_key;" parent="f0rVhy6eqY9SJm2_RnG6-14" vertex="1">
          <mxGeometry x="146.25" y="30" width="35" height="44.03" as="geometry" />
        </mxCell>
        <mxCell id="f0rVhy6eqY9SJm2_RnG6-20" value="" style="sketch=0;outlineConnect=0;fontColor=#232F3E;gradientColor=none;fillColor=#7AA116;strokeColor=none;dashed=0;verticalLabelPosition=bottom;verticalAlign=top;align=center;html=1;fontSize=12;fontStyle=0;aspect=fixed;pointerEvents=1;shape=mxgraph.aws4.bucket;" parent="f0rVhy6eqY9SJm2_RnG6-14" vertex="1">
          <mxGeometry x="88.75" y="94.03999999999996" width="35" height="36.4" as="geometry" />
        </mxCell>
        <mxCell id="f0rVhy6eqY9SJm2_RnG6-21" value="Development Account" style="points=[[0,0],[0.25,0],[0.5,0],[0.75,0],[1,0],[1,0.25],[1,0.5],[1,0.75],[1,1],[0.75,1],[0.5,1],[0.25,1],[0,1],[0,0.75],[0,0.5],[0,0.25]];outlineConnect=0;gradientColor=none;html=1;whiteSpace=wrap;fontSize=12;fontStyle=0;container=1;pointerEvents=0;collapsible=0;recursiveResize=0;shape=mxgraph.aws4.group;grIcon=mxgraph.aws4.group_account;strokeColor=#CD2264;fillColor=none;verticalAlign=top;align=left;spacingLeft=30;fontColor=#CD2264;dashed=0;" parent="1" vertex="1">
          <mxGeometry x="575" y="725" width="250" height="200" as="geometry" />
        </mxCell>
        <mxCell id="f0rVhy6eqY9SJm2_RnG6-22" value="Primary Region" style="points=[[0,0],[0.25,0],[0.5,0],[0.75,0],[1,0],[1,0.25],[1,0.5],[1,0.75],[1,1],[0.75,1],[0.5,1],[0.25,1],[0,1],[0,0.75],[0,0.5],[0,0.25]];outlineConnect=0;gradientColor=none;html=1;whiteSpace=wrap;fontSize=12;fontStyle=0;container=1;pointerEvents=0;collapsible=0;recursiveResize=0;shape=mxgraph.aws4.group;grIcon=mxgraph.aws4.group_region;strokeColor=#00A4A6;fillColor=none;verticalAlign=top;align=left;spacingLeft=30;fontColor=#147EBA;dashed=1;" parent="f0rVhy6eqY9SJm2_RnG6-21" vertex="1">
          <mxGeometry x="20" y="30" width="210" height="150" as="geometry" />
        </mxCell>
        <mxCell id="f0rVhy6eqY9SJm2_RnG6-23" value="" style="sketch=0;points=[[0,0,0],[0.25,0,0],[0.5,0,0],[0.75,0,0],[1,0,0],[0,1,0],[0.25,1,0],[0.5,1,0],[0.75,1,0],[1,1,0],[0,0.25,0],[0,0.5,0],[0,0.75,0],[1,0.25,0],[1,0.5,0],[1,0.75,0]];outlineConnect=0;fontColor=#232F3E;fillColor=#8C4FFF;strokeColor=#ffffff;dashed=0;verticalLabelPosition=bottom;verticalAlign=top;align=center;html=1;fontSize=12;fontStyle=0;aspect=fixed;shape=mxgraph.aws4.resourceIcon;resIcon=mxgraph.aws4.vpc;" parent="f0rVhy6eqY9SJm2_RnG6-22" vertex="1">
          <mxGeometry x="23.75" y="34.02999999999997" width="40" height="40" as="geometry" />
        </mxCell>
        <mxCell id="f0rVhy6eqY9SJm2_RnG6-24" value="" style="sketch=0;outlineConnect=0;fontColor=#232F3E;gradientColor=none;fillColor=#7AA116;strokeColor=none;dashed=0;verticalLabelPosition=bottom;verticalAlign=top;align=center;html=1;fontSize=12;fontStyle=0;aspect=fixed;pointerEvents=1;shape=mxgraph.aws4.backup_vault;" parent="f0rVhy6eqY9SJm2_RnG6-22" vertex="1">
          <mxGeometry x="83.75" y="34.02999999999997" width="40" height="40" as="geometry" />
        </mxCell>
        <mxCell id="f0rVhy6eqY9SJm2_RnG6-25" value="" style="sketch=0;outlineConnect=0;fontColor=#232F3E;gradientColor=none;fillColor=#8C4FFF;strokeColor=none;dashed=0;verticalLabelPosition=bottom;verticalAlign=top;align=center;html=1;fontSize=12;fontStyle=0;aspect=fixed;pointerEvents=1;shape=mxgraph.aws4.hosted_zone;" parent="f0rVhy6eqY9SJm2_RnG6-22" vertex="1">
          <mxGeometry x="23.75" y="92.5" width="40" height="39.49" as="geometry" />
        </mxCell>
        <mxCell id="f0rVhy6eqY9SJm2_RnG6-26" value="" style="sketch=0;outlineConnect=0;fontColor=#232F3E;gradientColor=none;fillColor=#DD344C;strokeColor=none;dashed=0;verticalLabelPosition=bottom;verticalAlign=top;align=center;html=1;fontSize=12;fontStyle=0;aspect=fixed;pointerEvents=1;shape=mxgraph.aws4.role;" parent="f0rVhy6eqY9SJm2_RnG6-22" vertex="1">
          <mxGeometry x="141.25" y="99.54999999999995" width="45" height="25.38" as="geometry" />
        </mxCell>
        <mxCell id="f0rVhy6eqY9SJm2_RnG6-27" value="" style="sketch=0;outlineConnect=0;fontColor=#232F3E;gradientColor=none;fillColor=#DD344C;strokeColor=none;dashed=0;verticalLabelPosition=bottom;verticalAlign=top;align=center;html=1;fontSize=12;fontStyle=0;aspect=fixed;pointerEvents=1;shape=mxgraph.aws4.data_encryption_key;" parent="f0rVhy6eqY9SJm2_RnG6-22" vertex="1">
          <mxGeometry x="146.25" y="30" width="35" height="44.03" as="geometry" />
        </mxCell>
        <mxCell id="f0rVhy6eqY9SJm2_RnG6-28" value="" style="sketch=0;outlineConnect=0;fontColor=#232F3E;gradientColor=none;fillColor=#7AA116;strokeColor=none;dashed=0;verticalLabelPosition=bottom;verticalAlign=top;align=center;html=1;fontSize=12;fontStyle=0;aspect=fixed;pointerEvents=1;shape=mxgraph.aws4.bucket;" parent="f0rVhy6eqY9SJm2_RnG6-22" vertex="1">
          <mxGeometry x="88.75" y="94.03999999999996" width="35" height="36.4" as="geometry" />
        </mxCell>
        <mxCell id="f0rVhy6eqY9SJm2_RnG6-30" value="Launch and manage" style="text;html=1;align=left;verticalAlign=middle;whiteSpace=wrap;rounded=0;" parent="1" vertex="1">
          <mxGeometry x="760" y="50" width="120" height="30" as="geometry" />
        </mxCell>
        <mxCell id="f0rVhy6eqY9SJm2_RnG6-31" value="" style="endArrow=none;html=1;rounded=0;" parent="1" edge="1">
          <mxGeometry width="50" height="50" relative="1" as="geometry">
            <mxPoint x="765" y="80" as="sourcePoint" />
            <mxPoint x="860" y="80" as="targetPoint" />
          </mxGeometry>
        </mxCell>
        <mxCell id="f0rVhy6eqY9SJm2_RnG6-33" value="Manage" style="text;html=1;align=left;verticalAlign=middle;whiteSpace=wrap;rounded=0;" parent="1" vertex="1">
          <mxGeometry x="760" y="89" width="120" height="30" as="geometry" />
        </mxCell>
        <mxCell id="f0rVhy6eqY9SJm2_RnG6-34" value="" style="endArrow=none;html=1;rounded=0;dashed=1;" parent="1" edge="1">
          <mxGeometry width="50" height="50" relative="1" as="geometry">
            <mxPoint x="765" y="119" as="sourcePoint" />
            <mxPoint x="860" y="119" as="targetPoint" />
          </mxGeometry>
        </mxCell>
        <mxCell id="owSioLmR3L221upou2J_-1" style="edgeStyle=orthogonalEdgeStyle;rounded=0;orthogonalLoop=1;jettySize=auto;html=1;dashed=1;dashPattern=12 12;" edge="1" parent="1" source="h4vDvT6IPbarKjSMEtqA-1" target="i1JZFnTnfweJTT1TfMiN-17">
          <mxGeometry relative="1" as="geometry">
            <mxPoint x="-10" y="210" as="targetPoint" />
            <Array as="points">
              <mxPoint x="480" />
              <mxPoint x="-9" />
              <mxPoint x="-9" y="352" />
            </Array>
          </mxGeometry>
        </mxCell>
        <mxCell id="owSioLmR3L221upou2J_-2" value="Delegate" style="text;html=1;align=left;verticalAlign=middle;whiteSpace=wrap;rounded=0;" vertex="1" parent="1">
          <mxGeometry x="760" y="129" width="120" height="30" as="geometry" />
        </mxCell>
        <mxCell id="owSioLmR3L221upou2J_-3" value="" style="endArrow=none;html=1;rounded=0;dashed=1;dashPattern=12 12;" edge="1" parent="1">
          <mxGeometry width="50" height="50" relative="1" as="geometry">
            <mxPoint x="765" y="159" as="sourcePoint" />
            <mxPoint x="860" y="159" as="targetPoint" />
          </mxGeometry>
        </mxCell>
      </root>
    </mxGraphModel>
  </diagram>
  <diagram id="P_SceppiajYrBJCPP-Ts" name="multi-region-basic">
    <mxGraphModel dx="2924" dy="2314" grid="1" gridSize="10" guides="1" tooltips="1" connect="1" arrows="1" fold="1" page="1" pageScale="1" pageWidth="850" pageHeight="1100" math="0" shadow="0">
      <root>
        <mxCell id="0" />
        <mxCell id="1" parent="0" />
        <mxCell id="NfaJbr-KvCWnzafxYLd7-1" style="edgeStyle=orthogonalEdgeStyle;rounded=0;orthogonalLoop=1;jettySize=auto;html=1;startArrow=classic;startFill=1;dashed=1;endArrow=none;endFill=0;" parent="1" target="NfaJbr-KvCWnzafxYLd7-19" edge="1">
          <mxGeometry relative="1" as="geometry">
            <mxPoint x="420" y="180" as="sourcePoint" />
          </mxGeometry>
        </mxCell>
        <mxCell id="NfaJbr-KvCWnzafxYLd7-4" value="Audit Account" style="points=[[0,0],[0.25,0],[0.5,0],[0.75,0],[1,0],[1,0.25],[1,0.5],[1,0.75],[1,1],[0.75,1],[0.5,1],[0.25,1],[0,1],[0,0.75],[0,0.5],[0,0.25]];outlineConnect=0;gradientColor=none;html=1;whiteSpace=wrap;fontSize=12;fontStyle=0;container=1;pointerEvents=0;collapsible=0;recursiveResize=0;shape=mxgraph.aws4.group;grIcon=mxgraph.aws4.group_account;strokeColor=#CD2264;fillColor=none;verticalAlign=top;align=left;spacingLeft=30;fontColor=#CD2264;dashed=0;" parent="1" vertex="1">
          <mxGeometry x="100" y="30" width="170" height="150" as="geometry" />
        </mxCell>
        <mxCell id="NfaJbr-KvCWnzafxYLd7-5" value="AWS Config" style="sketch=0;points=[[0,0,0],[0.25,0,0],[0.5,0,0],[0.75,0,0],[1,0,0],[0,1,0],[0.25,1,0],[0.5,1,0],[0.75,1,0],[1,1,0],[0,0.25,0],[0,0.5,0],[0,0.75,0],[1,0.25,0],[1,0.5,0],[1,0.75,0]];points=[[0,0,0],[0.25,0,0],[0.5,0,0],[0.75,0,0],[1,0,0],[0,1,0],[0.25,1,0],[0.5,1,0],[0.75,1,0],[1,1,0],[0,0.25,0],[0,0.5,0],[0,0.75,0],[1,0.25,0],[1,0.5,0],[1,0.75,0]];outlineConnect=0;fontColor=#232F3E;fillColor=#E7157B;strokeColor=#ffffff;dashed=0;verticalLabelPosition=bottom;verticalAlign=top;align=center;html=1;fontSize=12;fontStyle=0;aspect=fixed;shape=mxgraph.aws4.resourceIcon;resIcon=mxgraph.aws4.config;" parent="NfaJbr-KvCWnzafxYLd7-4" vertex="1">
          <mxGeometry x="46" y="36" width="78" height="78" as="geometry" />
        </mxCell>
        <mxCell id="NfaJbr-KvCWnzafxYLd7-6" value="Log Archive Account" style="points=[[0,0],[0.25,0],[0.5,0],[0.75,0],[1,0],[1,0.25],[1,0.5],[1,0.75],[1,1],[0.75,1],[0.5,1],[0.25,1],[0,1],[0,0.75],[0,0.5],[0,0.25]];outlineConnect=0;gradientColor=none;html=1;whiteSpace=wrap;fontSize=12;fontStyle=0;container=1;pointerEvents=0;collapsible=0;recursiveResize=0;shape=mxgraph.aws4.group;grIcon=mxgraph.aws4.group_account;strokeColor=#CD2264;fillColor=none;verticalAlign=top;align=left;spacingLeft=30;fontColor=#CD2264;dashed=0;" parent="1" vertex="1">
          <mxGeometry x="570" y="30" width="170" height="150" as="geometry" />
        </mxCell>
        <mxCell id="NfaJbr-KvCWnzafxYLd7-7" value="Logs" style="sketch=0;outlineConnect=0;fontColor=#232F3E;gradientColor=none;fillColor=#7AA116;strokeColor=none;dashed=0;verticalLabelPosition=bottom;verticalAlign=top;align=center;html=1;fontSize=12;fontStyle=0;aspect=fixed;pointerEvents=1;shape=mxgraph.aws4.bucket_with_objects;" parent="NfaJbr-KvCWnzafxYLd7-6" vertex="1">
          <mxGeometry x="47.5" y="36" width="75" height="78" as="geometry" />
        </mxCell>
        <mxCell id="NfaJbr-KvCWnzafxYLd7-8" value="Identity Account" style="points=[[0,0],[0.25,0],[0.5,0],[0.75,0],[1,0],[1,0.25],[1,0.5],[1,0.75],[1,1],[0.75,1],[0.5,1],[0.25,1],[0,1],[0,0.75],[0,0.5],[0,0.25]];outlineConnect=0;gradientColor=none;html=1;whiteSpace=wrap;fontSize=12;fontStyle=0;container=1;pointerEvents=0;collapsible=0;recursiveResize=0;shape=mxgraph.aws4.group;grIcon=mxgraph.aws4.group_account;strokeColor=#CD2264;fillColor=none;verticalAlign=top;align=left;spacingLeft=30;fontColor=#CD2264;dashed=0;" parent="1" vertex="1">
          <mxGeometry x="25" y="250" width="250" height="210" as="geometry" />
        </mxCell>
        <mxCell id="NfaJbr-KvCWnzafxYLd7-9" value="Primary Region" style="points=[[0,0],[0.25,0],[0.5,0],[0.75,0],[1,0],[1,0.25],[1,0.5],[1,0.75],[1,1],[0.75,1],[0.5,1],[0.25,1],[0,1],[0,0.75],[0,0.5],[0,0.25]];outlineConnect=0;gradientColor=none;html=1;whiteSpace=wrap;fontSize=12;fontStyle=0;container=1;pointerEvents=0;collapsible=0;recursiveResize=0;shape=mxgraph.aws4.group;grIcon=mxgraph.aws4.group_region;strokeColor=#00A4A6;fillColor=none;verticalAlign=top;align=left;spacingLeft=30;fontColor=#147EBA;dashed=1;" parent="NfaJbr-KvCWnzafxYLd7-8" vertex="1">
          <mxGeometry x="20" y="30" width="210" height="160" as="geometry" />
        </mxCell>
        <mxCell id="NfaJbr-KvCWnzafxYLd7-10" value="AWS IAM Identity Center&lt;div&gt;(identity management)&lt;/div&gt;" style="sketch=0;points=[[0,0,0],[0.25,0,0],[0.5,0,0],[0.75,0,0],[1,0,0],[0,1,0],[0.25,1,0],[0.5,1,0],[0.75,1,0],[1,1,0],[0,0.25,0],[0,0.5,0],[0,0.75,0],[1,0.25,0],[1,0.5,0],[1,0.75,0]];outlineConnect=0;fontColor=#232F3E;fillColor=#DD344C;strokeColor=#ffffff;dashed=0;verticalLabelPosition=bottom;verticalAlign=top;align=center;html=1;fontSize=12;fontStyle=0;aspect=fixed;shape=mxgraph.aws4.resourceIcon;resIcon=mxgraph.aws4.single_sign_on;" parent="NfaJbr-KvCWnzafxYLd7-9" vertex="1">
          <mxGeometry x="66" y="33.019999999999996" width="78" height="78" as="geometry" />
        </mxCell>
        <mxCell id="NfaJbr-KvCWnzafxYLd7-11" style="edgeStyle=orthogonalEdgeStyle;rounded=0;orthogonalLoop=1;jettySize=auto;html=1;entryX=1;entryY=0.5;entryDx=0;entryDy=0;" parent="1" source="NfaJbr-KvCWnzafxYLd7-19" target="NfaJbr-KvCWnzafxYLd7-8" edge="1">
          <mxGeometry relative="1" as="geometry" />
        </mxCell>
        <mxCell id="NfaJbr-KvCWnzafxYLd7-12" style="edgeStyle=orthogonalEdgeStyle;rounded=0;orthogonalLoop=1;jettySize=auto;html=1;" parent="1" source="NfaJbr-KvCWnzafxYLd7-19" target="NfaJbr-KvCWnzafxYLd7-21" edge="1">
          <mxGeometry relative="1" as="geometry" />
        </mxCell>
        <mxCell id="NfaJbr-KvCWnzafxYLd7-13" style="edgeStyle=orthogonalEdgeStyle;rounded=0;orthogonalLoop=1;jettySize=auto;html=1;entryX=1;entryY=0.5;entryDx=0;entryDy=0;" parent="1" source="NfaJbr-KvCWnzafxYLd7-19" target="NfaJbr-KvCWnzafxYLd7-24" edge="1">
          <mxGeometry relative="1" as="geometry" />
        </mxCell>
        <mxCell id="NfaJbr-KvCWnzafxYLd7-14" style="edgeStyle=orthogonalEdgeStyle;rounded=0;orthogonalLoop=1;jettySize=auto;html=1;entryX=0;entryY=0.5;entryDx=0;entryDy=0;" parent="1" source="NfaJbr-KvCWnzafxYLd7-19" target="NfaJbr-KvCWnzafxYLd7-35" edge="1">
          <mxGeometry relative="1" as="geometry">
            <mxPoint x="645" y="590" as="targetPoint" />
          </mxGeometry>
        </mxCell>
        <mxCell id="NfaJbr-KvCWnzafxYLd7-15" style="edgeStyle=orthogonalEdgeStyle;rounded=0;orthogonalLoop=1;jettySize=auto;html=1;entryX=0;entryY=0.5;entryDx=0;entryDy=0;" parent="1" source="NfaJbr-KvCWnzafxYLd7-19" target="NfaJbr-KvCWnzafxYLd7-27" edge="1">
          <mxGeometry relative="1" as="geometry" />
        </mxCell>
        <mxCell id="NfaJbr-KvCWnzafxYLd7-16" style="edgeStyle=orthogonalEdgeStyle;rounded=0;orthogonalLoop=1;jettySize=auto;html=1;entryX=0.5;entryY=1;entryDx=0;entryDy=0;dashed=1;" parent="1" source="NfaJbr-KvCWnzafxYLd7-19" target="NfaJbr-KvCWnzafxYLd7-4" edge="1">
          <mxGeometry relative="1" as="geometry">
            <Array as="points">
              <mxPoint x="370" y="220" />
              <mxPoint x="185" y="220" />
            </Array>
          </mxGeometry>
        </mxCell>
        <mxCell id="NfaJbr-KvCWnzafxYLd7-17" style="edgeStyle=orthogonalEdgeStyle;rounded=0;orthogonalLoop=1;jettySize=auto;html=1;entryX=0.5;entryY=1;entryDx=0;entryDy=0;dashed=1;" parent="1" source="NfaJbr-KvCWnzafxYLd7-19" target="NfaJbr-KvCWnzafxYLd7-6" edge="1">
          <mxGeometry relative="1" as="geometry">
            <Array as="points">
              <mxPoint x="460" y="220" />
              <mxPoint x="655" y="220" />
            </Array>
          </mxGeometry>
        </mxCell>
        <mxCell id="NfaJbr-KvCWnzafxYLd7-18" style="edgeStyle=orthogonalEdgeStyle;rounded=0;orthogonalLoop=1;jettySize=auto;html=1;entryX=0;entryY=0.5;entryDx=0;entryDy=0;" parent="1" source="NfaJbr-KvCWnzafxYLd7-19" target="NfaJbr-KvCWnzafxYLd7-43" edge="1">
          <mxGeometry relative="1" as="geometry" />
        </mxCell>
        <mxCell id="NfaJbr-KvCWnzafxYLd7-19" value="AFT Account" style="points=[[0,0],[0.25,0],[0.5,0],[0.75,0],[1,0],[1,0.25],[1,0.5],[1,0.75],[1,1],[0.75,1],[0.5,1],[0.25,1],[0,1],[0,0.75],[0,0.5],[0,0.25]];outlineConnect=0;gradientColor=none;html=1;whiteSpace=wrap;fontSize=12;fontStyle=0;container=1;pointerEvents=0;collapsible=0;recursiveResize=0;shape=mxgraph.aws4.group;grIcon=mxgraph.aws4.group_account;strokeColor=#CD2264;fillColor=none;verticalAlign=top;align=left;spacingLeft=30;fontColor=#CD2264;dashed=0;" parent="1" vertex="1">
          <mxGeometry x="335" y="515" width="170" height="150" as="geometry" />
        </mxCell>
        <mxCell id="NfaJbr-KvCWnzafxYLd7-20" value="Account Factory for Terraform" style="sketch=0;points=[[0,0,0],[0.25,0,0],[0.5,0,0],[0.75,0,0],[1,0,0],[0,1,0],[0.25,1,0],[0.5,1,0],[0.75,1,0],[1,1,0],[0,0.25,0],[0,0.5,0],[0,0.75,0],[1,0.25,0],[1,0.5,0],[1,0.75,0]];gradientDirection=north;outlineConnect=0;fontColor=#232F3E;gradientColor=none;fillColor=#1E262E;strokeColor=#ffffff;dashed=0;verticalLabelPosition=bottom;verticalAlign=top;align=center;html=1;fontSize=12;fontStyle=0;aspect=fixed;shape=mxgraph.aws4.resourceIcon;resIcon=mxgraph.aws4.general;" parent="NfaJbr-KvCWnzafxYLd7-19" vertex="1">
          <mxGeometry x="46" y="36" width="78" height="78" as="geometry" />
        </mxCell>
        <mxCell id="NfaJbr-KvCWnzafxYLd7-21" value="Backup Account" style="points=[[0,0],[0.25,0],[0.5,0],[0.75,0],[1,0],[1,0.25],[1,0.5],[1,0.75],[1,1],[0.75,1],[0.5,1],[0.25,1],[0,1],[0,0.75],[0,0.5],[0,0.25]];outlineConnect=0;gradientColor=none;html=1;whiteSpace=wrap;fontSize=12;fontStyle=0;container=1;pointerEvents=0;collapsible=0;recursiveResize=0;shape=mxgraph.aws4.group;grIcon=mxgraph.aws4.group_account;strokeColor=#CD2264;fillColor=none;verticalAlign=top;align=left;spacingLeft=30;fontColor=#CD2264;dashed=0;" parent="1" vertex="1">
          <mxGeometry x="-210" y="485" width="485" height="210" as="geometry" />
        </mxCell>
        <mxCell id="NfaJbr-KvCWnzafxYLd7-22" value="Primary Region" style="points=[[0,0],[0.25,0],[0.5,0],[0.75,0],[1,0],[1,0.25],[1,0.5],[1,0.75],[1,1],[0.75,1],[0.5,1],[0.25,1],[0,1],[0,0.75],[0,0.5],[0,0.25]];outlineConnect=0;gradientColor=none;html=1;whiteSpace=wrap;fontSize=12;fontStyle=0;container=1;pointerEvents=0;collapsible=0;recursiveResize=0;shape=mxgraph.aws4.group;grIcon=mxgraph.aws4.group_region;strokeColor=#00A4A6;fillColor=none;verticalAlign=top;align=left;spacingLeft=30;fontColor=#147EBA;dashed=1;" parent="NfaJbr-KvCWnzafxYLd7-21" vertex="1">
          <mxGeometry x="20" y="30.9" width="210" height="160" as="geometry" />
        </mxCell>
        <mxCell id="c5vxTqB_iUtsMUP7TXLd-3" style="edgeStyle=orthogonalEdgeStyle;rounded=0;orthogonalLoop=1;jettySize=auto;html=1;startArrow=classic;startFill=1;endArrow=none;endFill=0;dashed=1;dashPattern=12 12;" edge="1" parent="NfaJbr-KvCWnzafxYLd7-22" source="NfaJbr-KvCWnzafxYLd7-23">
          <mxGeometry relative="1" as="geometry">
            <mxPoint x="180" y="73.12999999999977" as="targetPoint" />
          </mxGeometry>
        </mxCell>
        <mxCell id="NfaJbr-KvCWnzafxYLd7-23" value="AWS Backup&lt;div&gt;(centralized backup)&lt;/div&gt;" style="sketch=0;points=[[0,0,0],[0.25,0,0],[0.5,0,0],[0.75,0,0],[1,0,0],[0,1,0],[0.25,1,0],[0.5,1,0],[0.75,1,0],[1,1,0],[0,0.25,0],[0,0.5,0],[0,0.75,0],[1,0.25,0],[1,0.5,0],[1,0.75,0]];outlineConnect=0;fontColor=#232F3E;fillColor=#7AA116;strokeColor=#ffffff;dashed=0;verticalLabelPosition=bottom;verticalAlign=top;align=center;html=1;fontSize=12;fontStyle=0;aspect=fixed;shape=mxgraph.aws4.resourceIcon;resIcon=mxgraph.aws4.backup;" parent="NfaJbr-KvCWnzafxYLd7-22" vertex="1">
          <mxGeometry x="66" y="34.129999999999995" width="78" height="78" as="geometry" />
        </mxCell>
        <mxCell id="NfaJbr-KvCWnzafxYLd7-69" value="Secondary Region" style="points=[[0,0],[0.25,0],[0.5,0],[0.75,0],[1,0],[1,0.25],[1,0.5],[1,0.75],[1,1],[0.75,1],[0.5,1],[0.25,1],[0,1],[0,0.75],[0,0.5],[0,0.25]];outlineConnect=0;gradientColor=none;html=1;whiteSpace=wrap;fontSize=12;fontStyle=0;container=1;pointerEvents=0;collapsible=0;recursiveResize=0;shape=mxgraph.aws4.group;grIcon=mxgraph.aws4.group_region;strokeColor=#00A4A6;fillColor=none;verticalAlign=top;align=left;spacingLeft=30;fontColor=#147EBA;dashed=1;" parent="NfaJbr-KvCWnzafxYLd7-21" vertex="1">
          <mxGeometry x="250" y="30.9" width="210" height="160" as="geometry" />
        </mxCell>
        <mxCell id="NfaJbr-KvCWnzafxYLd7-70" value="AWS Backup&lt;div&gt;(centralized backup)&lt;/div&gt;" style="sketch=0;points=[[0,0,0],[0.25,0,0],[0.5,0,0],[0.75,0,0],[1,0,0],[0,1,0],[0.25,1,0],[0.5,1,0],[0.75,1,0],[1,1,0],[0,0.25,0],[0,0.5,0],[0,0.75,0],[1,0.25,0],[1,0.5,0],[1,0.75,0]];outlineConnect=0;fontColor=#232F3E;fillColor=#7AA116;strokeColor=#ffffff;dashed=0;verticalLabelPosition=bottom;verticalAlign=top;align=center;html=1;fontSize=12;fontStyle=0;aspect=fixed;shape=mxgraph.aws4.resourceIcon;resIcon=mxgraph.aws4.backup;" parent="NfaJbr-KvCWnzafxYLd7-69" vertex="1">
          <mxGeometry x="66" y="34.129999999999995" width="78" height="78" as="geometry" />
        </mxCell>
        <mxCell id="NfaJbr-KvCWnzafxYLd7-24" value="Network Account" style="points=[[0,0],[0.25,0],[0.5,0],[0.75,0],[1,0],[1,0.25],[1,0.5],[1,0.75],[1,1],[0.75,1],[0.5,1],[0.25,1],[0,1],[0,0.75],[0,0.5],[0,0.25]];outlineConnect=0;gradientColor=none;html=1;whiteSpace=wrap;fontSize=12;fontStyle=0;container=1;pointerEvents=0;collapsible=0;recursiveResize=0;shape=mxgraph.aws4.group;grIcon=mxgraph.aws4.group_account;strokeColor=#CD2264;fillColor=none;verticalAlign=top;align=left;spacingLeft=30;fontColor=#CD2264;dashed=0;" parent="1" vertex="1">
          <mxGeometry x="-210" y="720" width="485" height="320" as="geometry" />
        </mxCell>
        <mxCell id="NfaJbr-KvCWnzafxYLd7-25" value="Primary Region" style="points=[[0,0],[0.25,0],[0.5,0],[0.75,0],[1,0],[1,0.25],[1,0.5],[1,0.75],[1,1],[0.75,1],[0.5,1],[0.25,1],[0,1],[0,0.75],[0,0.5],[0,0.25]];outlineConnect=0;gradientColor=none;html=1;whiteSpace=wrap;fontSize=12;fontStyle=0;container=1;pointerEvents=0;collapsible=0;recursiveResize=0;shape=mxgraph.aws4.group;grIcon=mxgraph.aws4.group_region;strokeColor=#00A4A6;fillColor=none;verticalAlign=top;align=left;spacingLeft=30;fontColor=#147EBA;dashed=1;" parent="NfaJbr-KvCWnzafxYLd7-24" vertex="1">
          <mxGeometry x="20" y="30" width="210" height="270" as="geometry" />
        </mxCell>
        <mxCell id="gGgzpgXE2RyU1pmVix7B-5" value="Transit Gateway&lt;div&gt;(network routing)&lt;/div&gt;" style="sketch=0;points=[[0,0,0],[0.25,0,0],[0.5,0,0],[0.75,0,0],[1,0,0],[0,1,0],[0.25,1,0],[0.5,1,0],[0.75,1,0],[1,1,0],[0,0.25,0],[0,0.5,0],[0,0.75,0],[1,0.25,0],[1,0.5,0],[1,0.75,0]];outlineConnect=0;fontColor=#232F3E;fillColor=#8C4FFF;strokeColor=#ffffff;dashed=0;verticalLabelPosition=bottom;verticalAlign=top;align=center;html=1;fontSize=12;fontStyle=0;aspect=fixed;shape=mxgraph.aws4.resourceIcon;resIcon=mxgraph.aws4.transit_gateway;" parent="NfaJbr-KvCWnzafxYLd7-25" vertex="1">
          <mxGeometry x="25" y="50" width="60" height="60" as="geometry" />
        </mxCell>
        <mxCell id="gGgzpgXE2RyU1pmVix7B-6" value="NAT Gateway&lt;div&gt;(centralized egress)&lt;br&gt;&lt;/div&gt;" style="sketch=0;outlineConnect=0;fontColor=#232F3E;fillColor=#8C4FFF;strokeColor=none;dashed=0;verticalLabelPosition=bottom;verticalAlign=top;align=center;html=1;fontSize=12;fontStyle=0;aspect=fixed;shape=mxgraph.aws4.nat_gateway;resIcon=mxgraph.aws4.network_firewall;gradientColor=none;pointerEvents=1;" parent="NfaJbr-KvCWnzafxYLd7-25" vertex="1">
          <mxGeometry x="125" y="50" width="60" height="60" as="geometry" />
        </mxCell>
        <mxCell id="RRx3v6YBgmneakyA54jF-1" value="Route 53&lt;div&gt;(centralized DNS)&lt;/div&gt;" style="sketch=0;points=[[0,0,0],[0.25,0,0],[0.5,0,0],[0.75,0,0],[1,0,0],[0,1,0],[0.25,1,0],[0.5,1,0],[0.75,1,0],[1,1,0],[0,0.25,0],[0,0.5,0],[0,0.75,0],[1,0.25,0],[1,0.5,0],[1,0.75,0]];outlineConnect=0;fontColor=#232F3E;fillColor=#8C4FFF;strokeColor=#ffffff;dashed=0;verticalLabelPosition=bottom;verticalAlign=top;align=center;html=1;fontSize=12;fontStyle=0;aspect=fixed;shape=mxgraph.aws4.resourceIcon;resIcon=mxgraph.aws4.route_53;" parent="NfaJbr-KvCWnzafxYLd7-25" vertex="1">
          <mxGeometry x="25" y="160" width="60" height="60" as="geometry" />
        </mxCell>
        <mxCell id="R2Q0ve5GqYDOgr2VULrY-1" value="Endpoints&lt;div&gt;&lt;br&gt;&lt;/div&gt;" style="sketch=0;outlineConnect=0;fontColor=#232F3E;gradientColor=none;fillColor=#8C4FFF;strokeColor=none;dashed=0;verticalLabelPosition=bottom;verticalAlign=top;align=center;html=1;fontSize=12;fontStyle=0;aspect=fixed;pointerEvents=1;shape=mxgraph.aws4.endpoints;" parent="NfaJbr-KvCWnzafxYLd7-25" vertex="1">
          <mxGeometry x="125" y="160" width="60" height="60" as="geometry" />
        </mxCell>
        <mxCell id="NfaJbr-KvCWnzafxYLd7-71" value="Secondary Region" style="points=[[0,0],[0.25,0],[0.5,0],[0.75,0],[1,0],[1,0.25],[1,0.5],[1,0.75],[1,1],[0.75,1],[0.5,1],[0.25,1],[0,1],[0,0.75],[0,0.5],[0,0.25]];outlineConnect=0;gradientColor=none;html=1;whiteSpace=wrap;fontSize=12;fontStyle=0;container=1;pointerEvents=0;collapsible=0;recursiveResize=0;shape=mxgraph.aws4.group;grIcon=mxgraph.aws4.group_region;strokeColor=#00A4A6;fillColor=none;verticalAlign=top;align=left;spacingLeft=30;fontColor=#147EBA;dashed=1;" parent="NfaJbr-KvCWnzafxYLd7-24" vertex="1">
          <mxGeometry x="250" y="30" width="210" height="270" as="geometry" />
        </mxCell>
        <mxCell id="gGgzpgXE2RyU1pmVix7B-3" value="Transit Gateway&lt;div&gt;(network routing)&lt;/div&gt;" style="sketch=0;points=[[0,0,0],[0.25,0,0],[0.5,0,0],[0.75,0,0],[1,0,0],[0,1,0],[0.25,1,0],[0.5,1,0],[0.75,1,0],[1,1,0],[0,0.25,0],[0,0.5,0],[0,0.75,0],[1,0.25,0],[1,0.5,0],[1,0.75,0]];outlineConnect=0;fontColor=#232F3E;fillColor=#8C4FFF;strokeColor=#ffffff;dashed=0;verticalLabelPosition=bottom;verticalAlign=top;align=center;html=1;fontSize=12;fontStyle=0;aspect=fixed;shape=mxgraph.aws4.resourceIcon;resIcon=mxgraph.aws4.transit_gateway;" parent="NfaJbr-KvCWnzafxYLd7-71" vertex="1">
          <mxGeometry x="30" y="50" width="60" height="60" as="geometry" />
        </mxCell>
        <mxCell id="gGgzpgXE2RyU1pmVix7B-4" value="NAT Gateway&lt;div&gt;(centralized egress)&lt;br&gt;&lt;/div&gt;" style="sketch=0;outlineConnect=0;fontColor=#232F3E;fillColor=#8C4FFF;strokeColor=none;dashed=0;verticalLabelPosition=bottom;verticalAlign=top;align=center;html=1;fontSize=12;fontStyle=0;aspect=fixed;shape=mxgraph.aws4.nat_gateway;resIcon=mxgraph.aws4.network_firewall;gradientColor=none;pointerEvents=1;" parent="NfaJbr-KvCWnzafxYLd7-71" vertex="1">
          <mxGeometry x="130" y="50" width="60" height="60" as="geometry" />
        </mxCell>
        <mxCell id="aN8U8f2Wxlyw86foD5PS-1" value="Route 53&lt;div&gt;(centralized DNS)&lt;/div&gt;" style="sketch=0;points=[[0,0,0],[0.25,0,0],[0.5,0,0],[0.75,0,0],[1,0,0],[0,1,0],[0.25,1,0],[0.5,1,0],[0.75,1,0],[1,1,0],[0,0.25,0],[0,0.5,0],[0,0.75,0],[1,0.25,0],[1,0.5,0],[1,0.75,0]];outlineConnect=0;fontColor=#232F3E;fillColor=#8C4FFF;strokeColor=#ffffff;dashed=0;verticalLabelPosition=bottom;verticalAlign=top;align=center;html=1;fontSize=12;fontStyle=0;aspect=fixed;shape=mxgraph.aws4.resourceIcon;resIcon=mxgraph.aws4.route_53;" parent="NfaJbr-KvCWnzafxYLd7-71" vertex="1">
          <mxGeometry x="30" y="160" width="60" height="60" as="geometry" />
        </mxCell>
        <mxCell id="zpHWnQlXkSHpDy4AVgc0-1" value="Endpoints&lt;div&gt;&lt;br&gt;&lt;/div&gt;" style="sketch=0;outlineConnect=0;fontColor=#232F3E;gradientColor=none;fillColor=#8C4FFF;strokeColor=none;dashed=0;verticalLabelPosition=bottom;verticalAlign=top;align=center;html=1;fontSize=12;fontStyle=0;aspect=fixed;pointerEvents=1;shape=mxgraph.aws4.endpoints;" parent="NfaJbr-KvCWnzafxYLd7-71" vertex="1">
          <mxGeometry x="130" y="160" width="60" height="60" as="geometry" />
        </mxCell>
        <mxCell id="NfaJbr-KvCWnzafxYLd7-27" value="Production Account" style="points=[[0,0],[0.25,0],[0.5,0],[0.75,0],[1,0],[1,0.25],[1,0.5],[1,0.75],[1,1],[0.75,1],[0.5,1],[0.25,1],[0,1],[0,0.75],[0,0.5],[0,0.25]];outlineConnect=0;gradientColor=none;html=1;whiteSpace=wrap;fontSize=12;fontStyle=0;container=1;pointerEvents=0;collapsible=0;recursiveResize=0;shape=mxgraph.aws4.group;grIcon=mxgraph.aws4.group_account;strokeColor=#CD2264;fillColor=none;verticalAlign=top;align=left;spacingLeft=30;fontColor=#CD2264;dashed=0;" parent="1" vertex="1">
          <mxGeometry x="575" y="255" width="485" height="200" as="geometry" />
        </mxCell>
        <mxCell id="NfaJbr-KvCWnzafxYLd7-28" value="Primary Region" style="points=[[0,0],[0.25,0],[0.5,0],[0.75,0],[1,0],[1,0.25],[1,0.5],[1,0.75],[1,1],[0.75,1],[0.5,1],[0.25,1],[0,1],[0,0.75],[0,0.5],[0,0.25]];outlineConnect=0;gradientColor=none;html=1;whiteSpace=wrap;fontSize=12;fontStyle=0;container=1;pointerEvents=0;collapsible=0;recursiveResize=0;shape=mxgraph.aws4.group;grIcon=mxgraph.aws4.group_region;strokeColor=#00A4A6;fillColor=none;verticalAlign=top;align=left;spacingLeft=30;fontColor=#147EBA;dashed=1;" parent="NfaJbr-KvCWnzafxYLd7-27" vertex="1">
          <mxGeometry x="20" y="30" width="210" height="150" as="geometry" />
        </mxCell>
        <mxCell id="NfaJbr-KvCWnzafxYLd7-29" value="" style="sketch=0;points=[[0,0,0],[0.25,0,0],[0.5,0,0],[0.75,0,0],[1,0,0],[0,1,0],[0.25,1,0],[0.5,1,0],[0.75,1,0],[1,1,0],[0,0.25,0],[0,0.5,0],[0,0.75,0],[1,0.25,0],[1,0.5,0],[1,0.75,0]];outlineConnect=0;fontColor=#232F3E;fillColor=#8C4FFF;strokeColor=#ffffff;dashed=0;verticalLabelPosition=bottom;verticalAlign=top;align=center;html=1;fontSize=12;fontStyle=0;aspect=fixed;shape=mxgraph.aws4.resourceIcon;resIcon=mxgraph.aws4.vpc;" parent="NfaJbr-KvCWnzafxYLd7-28" vertex="1">
          <mxGeometry x="23.75" y="34.02999999999997" width="40" height="40" as="geometry" />
        </mxCell>
        <mxCell id="NfaJbr-KvCWnzafxYLd7-30" value="" style="sketch=0;outlineConnect=0;fontColor=#232F3E;gradientColor=none;fillColor=#7AA116;strokeColor=none;dashed=0;verticalLabelPosition=bottom;verticalAlign=top;align=center;html=1;fontSize=12;fontStyle=0;aspect=fixed;pointerEvents=1;shape=mxgraph.aws4.backup_vault;" parent="NfaJbr-KvCWnzafxYLd7-28" vertex="1">
          <mxGeometry x="83.75" y="34.02999999999997" width="40" height="40" as="geometry" />
        </mxCell>
        <mxCell id="NfaJbr-KvCWnzafxYLd7-31" value="" style="sketch=0;outlineConnect=0;fontColor=#232F3E;gradientColor=none;fillColor=#8C4FFF;strokeColor=none;dashed=0;verticalLabelPosition=bottom;verticalAlign=top;align=center;html=1;fontSize=12;fontStyle=0;aspect=fixed;pointerEvents=1;shape=mxgraph.aws4.hosted_zone;" parent="NfaJbr-KvCWnzafxYLd7-28" vertex="1">
          <mxGeometry x="23.75" y="92.5" width="40" height="39.49" as="geometry" />
        </mxCell>
        <mxCell id="NfaJbr-KvCWnzafxYLd7-32" value="" style="sketch=0;outlineConnect=0;fontColor=#232F3E;gradientColor=none;fillColor=#DD344C;strokeColor=none;dashed=0;verticalLabelPosition=bottom;verticalAlign=top;align=center;html=1;fontSize=12;fontStyle=0;aspect=fixed;pointerEvents=1;shape=mxgraph.aws4.role;" parent="NfaJbr-KvCWnzafxYLd7-28" vertex="1">
          <mxGeometry x="141.25" y="99.54999999999995" width="45" height="25.38" as="geometry" />
        </mxCell>
        <mxCell id="NfaJbr-KvCWnzafxYLd7-33" value="" style="sketch=0;outlineConnect=0;fontColor=#232F3E;gradientColor=none;fillColor=#DD344C;strokeColor=none;dashed=0;verticalLabelPosition=bottom;verticalAlign=top;align=center;html=1;fontSize=12;fontStyle=0;aspect=fixed;pointerEvents=1;shape=mxgraph.aws4.data_encryption_key;" parent="NfaJbr-KvCWnzafxYLd7-28" vertex="1">
          <mxGeometry x="146.25" y="30" width="35" height="44.03" as="geometry" />
        </mxCell>
        <mxCell id="NfaJbr-KvCWnzafxYLd7-34" value="" style="sketch=0;outlineConnect=0;fontColor=#232F3E;gradientColor=none;fillColor=#7AA116;strokeColor=none;dashed=0;verticalLabelPosition=bottom;verticalAlign=top;align=center;html=1;fontSize=12;fontStyle=0;aspect=fixed;pointerEvents=1;shape=mxgraph.aws4.bucket;" parent="NfaJbr-KvCWnzafxYLd7-28" vertex="1">
          <mxGeometry x="88.75" y="94.03999999999996" width="35" height="36.4" as="geometry" />
        </mxCell>
        <mxCell id="NfaJbr-KvCWnzafxYLd7-73" value="Secondary Region" style="points=[[0,0],[0.25,0],[0.5,0],[0.75,0],[1,0],[1,0.25],[1,0.5],[1,0.75],[1,1],[0.75,1],[0.5,1],[0.25,1],[0,1],[0,0.75],[0,0.5],[0,0.25]];outlineConnect=0;gradientColor=none;html=1;whiteSpace=wrap;fontSize=12;fontStyle=0;container=1;pointerEvents=0;collapsible=0;recursiveResize=0;shape=mxgraph.aws4.group;grIcon=mxgraph.aws4.group_region;strokeColor=#00A4A6;fillColor=none;verticalAlign=top;align=left;spacingLeft=30;fontColor=#147EBA;dashed=1;" parent="NfaJbr-KvCWnzafxYLd7-27" vertex="1">
          <mxGeometry x="255" y="30" width="210" height="150" as="geometry" />
        </mxCell>
        <mxCell id="NfaJbr-KvCWnzafxYLd7-74" value="" style="sketch=0;points=[[0,0,0],[0.25,0,0],[0.5,0,0],[0.75,0,0],[1,0,0],[0,1,0],[0.25,1,0],[0.5,1,0],[0.75,1,0],[1,1,0],[0,0.25,0],[0,0.5,0],[0,0.75,0],[1,0.25,0],[1,0.5,0],[1,0.75,0]];outlineConnect=0;fontColor=#232F3E;fillColor=#8C4FFF;strokeColor=#ffffff;dashed=0;verticalLabelPosition=bottom;verticalAlign=top;align=center;html=1;fontSize=12;fontStyle=0;aspect=fixed;shape=mxgraph.aws4.resourceIcon;resIcon=mxgraph.aws4.vpc;" parent="NfaJbr-KvCWnzafxYLd7-73" vertex="1">
          <mxGeometry x="23.75" y="34.02999999999997" width="40" height="40" as="geometry" />
        </mxCell>
        <mxCell id="NfaJbr-KvCWnzafxYLd7-75" value="" style="sketch=0;outlineConnect=0;fontColor=#232F3E;gradientColor=none;fillColor=#7AA116;strokeColor=none;dashed=0;verticalLabelPosition=bottom;verticalAlign=top;align=center;html=1;fontSize=12;fontStyle=0;aspect=fixed;pointerEvents=1;shape=mxgraph.aws4.backup_vault;" parent="NfaJbr-KvCWnzafxYLd7-73" vertex="1">
          <mxGeometry x="83.75" y="34.02999999999997" width="40" height="40" as="geometry" />
        </mxCell>
        <mxCell id="NfaJbr-KvCWnzafxYLd7-76" value="" style="sketch=0;outlineConnect=0;fontColor=#232F3E;gradientColor=none;fillColor=#8C4FFF;strokeColor=none;dashed=0;verticalLabelPosition=bottom;verticalAlign=top;align=center;html=1;fontSize=12;fontStyle=0;aspect=fixed;pointerEvents=1;shape=mxgraph.aws4.hosted_zone;" parent="NfaJbr-KvCWnzafxYLd7-73" vertex="1">
          <mxGeometry x="23.75" y="92.5" width="40" height="39.49" as="geometry" />
        </mxCell>
        <mxCell id="NfaJbr-KvCWnzafxYLd7-77" value="" style="sketch=0;outlineConnect=0;fontColor=#232F3E;gradientColor=none;fillColor=#DD344C;strokeColor=none;dashed=0;verticalLabelPosition=bottom;verticalAlign=top;align=center;html=1;fontSize=12;fontStyle=0;aspect=fixed;pointerEvents=1;shape=mxgraph.aws4.role;" parent="NfaJbr-KvCWnzafxYLd7-73" vertex="1">
          <mxGeometry x="141.25" y="99.54999999999995" width="45" height="25.38" as="geometry" />
        </mxCell>
        <mxCell id="NfaJbr-KvCWnzafxYLd7-78" value="" style="sketch=0;outlineConnect=0;fontColor=#232F3E;gradientColor=none;fillColor=#DD344C;strokeColor=none;dashed=0;verticalLabelPosition=bottom;verticalAlign=top;align=center;html=1;fontSize=12;fontStyle=0;aspect=fixed;pointerEvents=1;shape=mxgraph.aws4.data_encryption_key;" parent="NfaJbr-KvCWnzafxYLd7-73" vertex="1">
          <mxGeometry x="146.25" y="30" width="35" height="44.03" as="geometry" />
        </mxCell>
        <mxCell id="NfaJbr-KvCWnzafxYLd7-79" value="" style="sketch=0;outlineConnect=0;fontColor=#232F3E;gradientColor=none;fillColor=#7AA116;strokeColor=none;dashed=0;verticalLabelPosition=bottom;verticalAlign=top;align=center;html=1;fontSize=12;fontStyle=0;aspect=fixed;pointerEvents=1;shape=mxgraph.aws4.bucket;" parent="NfaJbr-KvCWnzafxYLd7-73" vertex="1">
          <mxGeometry x="88.75" y="94.03999999999996" width="35" height="36.4" as="geometry" />
        </mxCell>
        <mxCell id="NfaJbr-KvCWnzafxYLd7-35" value="Stage Account" style="points=[[0,0],[0.25,0],[0.5,0],[0.75,0],[1,0],[1,0.25],[1,0.5],[1,0.75],[1,1],[0.75,1],[0.5,1],[0.25,1],[0,1],[0,0.75],[0,0.5],[0,0.25]];outlineConnect=0;gradientColor=none;html=1;whiteSpace=wrap;fontSize=12;fontStyle=0;container=1;pointerEvents=0;collapsible=0;recursiveResize=0;shape=mxgraph.aws4.group;grIcon=mxgraph.aws4.group_account;strokeColor=#CD2264;fillColor=none;verticalAlign=top;align=left;spacingLeft=30;fontColor=#CD2264;dashed=0;" parent="1" vertex="1">
          <mxGeometry x="575" y="490" width="485" height="200" as="geometry" />
        </mxCell>
        <mxCell id="NfaJbr-KvCWnzafxYLd7-36" value="Primary Region" style="points=[[0,0],[0.25,0],[0.5,0],[0.75,0],[1,0],[1,0.25],[1,0.5],[1,0.75],[1,1],[0.75,1],[0.5,1],[0.25,1],[0,1],[0,0.75],[0,0.5],[0,0.25]];outlineConnect=0;gradientColor=none;html=1;whiteSpace=wrap;fontSize=12;fontStyle=0;container=1;pointerEvents=0;collapsible=0;recursiveResize=0;shape=mxgraph.aws4.group;grIcon=mxgraph.aws4.group_region;strokeColor=#00A4A6;fillColor=none;verticalAlign=top;align=left;spacingLeft=30;fontColor=#147EBA;dashed=1;" parent="NfaJbr-KvCWnzafxYLd7-35" vertex="1">
          <mxGeometry x="20" y="30" width="210" height="150" as="geometry" />
        </mxCell>
        <mxCell id="NfaJbr-KvCWnzafxYLd7-37" value="" style="sketch=0;points=[[0,0,0],[0.25,0,0],[0.5,0,0],[0.75,0,0],[1,0,0],[0,1,0],[0.25,1,0],[0.5,1,0],[0.75,1,0],[1,1,0],[0,0.25,0],[0,0.5,0],[0,0.75,0],[1,0.25,0],[1,0.5,0],[1,0.75,0]];outlineConnect=0;fontColor=#232F3E;fillColor=#8C4FFF;strokeColor=#ffffff;dashed=0;verticalLabelPosition=bottom;verticalAlign=top;align=center;html=1;fontSize=12;fontStyle=0;aspect=fixed;shape=mxgraph.aws4.resourceIcon;resIcon=mxgraph.aws4.vpc;" parent="NfaJbr-KvCWnzafxYLd7-36" vertex="1">
          <mxGeometry x="23.75" y="34.02999999999997" width="40" height="40" as="geometry" />
        </mxCell>
        <mxCell id="NfaJbr-KvCWnzafxYLd7-38" value="" style="sketch=0;outlineConnect=0;fontColor=#232F3E;gradientColor=none;fillColor=#7AA116;strokeColor=none;dashed=0;verticalLabelPosition=bottom;verticalAlign=top;align=center;html=1;fontSize=12;fontStyle=0;aspect=fixed;pointerEvents=1;shape=mxgraph.aws4.backup_vault;" parent="NfaJbr-KvCWnzafxYLd7-36" vertex="1">
          <mxGeometry x="83.75" y="34.02999999999997" width="40" height="40" as="geometry" />
        </mxCell>
        <mxCell id="NfaJbr-KvCWnzafxYLd7-39" value="" style="sketch=0;outlineConnect=0;fontColor=#232F3E;gradientColor=none;fillColor=#8C4FFF;strokeColor=none;dashed=0;verticalLabelPosition=bottom;verticalAlign=top;align=center;html=1;fontSize=12;fontStyle=0;aspect=fixed;pointerEvents=1;shape=mxgraph.aws4.hosted_zone;" parent="NfaJbr-KvCWnzafxYLd7-36" vertex="1">
          <mxGeometry x="23.75" y="92.5" width="40" height="39.49" as="geometry" />
        </mxCell>
        <mxCell id="NfaJbr-KvCWnzafxYLd7-40" value="" style="sketch=0;outlineConnect=0;fontColor=#232F3E;gradientColor=none;fillColor=#DD344C;strokeColor=none;dashed=0;verticalLabelPosition=bottom;verticalAlign=top;align=center;html=1;fontSize=12;fontStyle=0;aspect=fixed;pointerEvents=1;shape=mxgraph.aws4.role;" parent="NfaJbr-KvCWnzafxYLd7-36" vertex="1">
          <mxGeometry x="141.25" y="99.54999999999995" width="45" height="25.38" as="geometry" />
        </mxCell>
        <mxCell id="NfaJbr-KvCWnzafxYLd7-41" value="" style="sketch=0;outlineConnect=0;fontColor=#232F3E;gradientColor=none;fillColor=#DD344C;strokeColor=none;dashed=0;verticalLabelPosition=bottom;verticalAlign=top;align=center;html=1;fontSize=12;fontStyle=0;aspect=fixed;pointerEvents=1;shape=mxgraph.aws4.data_encryption_key;" parent="NfaJbr-KvCWnzafxYLd7-36" vertex="1">
          <mxGeometry x="146.25" y="30" width="35" height="44.03" as="geometry" />
        </mxCell>
        <mxCell id="NfaJbr-KvCWnzafxYLd7-42" value="" style="sketch=0;outlineConnect=0;fontColor=#232F3E;gradientColor=none;fillColor=#7AA116;strokeColor=none;dashed=0;verticalLabelPosition=bottom;verticalAlign=top;align=center;html=1;fontSize=12;fontStyle=0;aspect=fixed;pointerEvents=1;shape=mxgraph.aws4.bucket;" parent="NfaJbr-KvCWnzafxYLd7-36" vertex="1">
          <mxGeometry x="88.75" y="94.03999999999996" width="35" height="36.4" as="geometry" />
        </mxCell>
        <mxCell id="NfaJbr-KvCWnzafxYLd7-80" value="Primary Region" style="points=[[0,0],[0.25,0],[0.5,0],[0.75,0],[1,0],[1,0.25],[1,0.5],[1,0.75],[1,1],[0.75,1],[0.5,1],[0.25,1],[0,1],[0,0.75],[0,0.5],[0,0.25]];outlineConnect=0;gradientColor=none;html=1;whiteSpace=wrap;fontSize=12;fontStyle=0;container=1;pointerEvents=0;collapsible=0;recursiveResize=0;shape=mxgraph.aws4.group;grIcon=mxgraph.aws4.group_region;strokeColor=#00A4A6;fillColor=none;verticalAlign=top;align=left;spacingLeft=30;fontColor=#147EBA;dashed=1;" parent="NfaJbr-KvCWnzafxYLd7-35" vertex="1">
          <mxGeometry x="255" y="30" width="210" height="150" as="geometry" />
        </mxCell>
        <mxCell id="NfaJbr-KvCWnzafxYLd7-81" value="" style="sketch=0;points=[[0,0,0],[0.25,0,0],[0.5,0,0],[0.75,0,0],[1,0,0],[0,1,0],[0.25,1,0],[0.5,1,0],[0.75,1,0],[1,1,0],[0,0.25,0],[0,0.5,0],[0,0.75,0],[1,0.25,0],[1,0.5,0],[1,0.75,0]];outlineConnect=0;fontColor=#232F3E;fillColor=#8C4FFF;strokeColor=#ffffff;dashed=0;verticalLabelPosition=bottom;verticalAlign=top;align=center;html=1;fontSize=12;fontStyle=0;aspect=fixed;shape=mxgraph.aws4.resourceIcon;resIcon=mxgraph.aws4.vpc;" parent="NfaJbr-KvCWnzafxYLd7-80" vertex="1">
          <mxGeometry x="23.75" y="34.02999999999997" width="40" height="40" as="geometry" />
        </mxCell>
        <mxCell id="NfaJbr-KvCWnzafxYLd7-82" value="" style="sketch=0;outlineConnect=0;fontColor=#232F3E;gradientColor=none;fillColor=#7AA116;strokeColor=none;dashed=0;verticalLabelPosition=bottom;verticalAlign=top;align=center;html=1;fontSize=12;fontStyle=0;aspect=fixed;pointerEvents=1;shape=mxgraph.aws4.backup_vault;" parent="NfaJbr-KvCWnzafxYLd7-80" vertex="1">
          <mxGeometry x="83.75" y="34.02999999999997" width="40" height="40" as="geometry" />
        </mxCell>
        <mxCell id="NfaJbr-KvCWnzafxYLd7-83" value="" style="sketch=0;outlineConnect=0;fontColor=#232F3E;gradientColor=none;fillColor=#8C4FFF;strokeColor=none;dashed=0;verticalLabelPosition=bottom;verticalAlign=top;align=center;html=1;fontSize=12;fontStyle=0;aspect=fixed;pointerEvents=1;shape=mxgraph.aws4.hosted_zone;" parent="NfaJbr-KvCWnzafxYLd7-80" vertex="1">
          <mxGeometry x="23.75" y="92.5" width="40" height="39.49" as="geometry" />
        </mxCell>
        <mxCell id="NfaJbr-KvCWnzafxYLd7-84" value="" style="sketch=0;outlineConnect=0;fontColor=#232F3E;gradientColor=none;fillColor=#DD344C;strokeColor=none;dashed=0;verticalLabelPosition=bottom;verticalAlign=top;align=center;html=1;fontSize=12;fontStyle=0;aspect=fixed;pointerEvents=1;shape=mxgraph.aws4.role;" parent="NfaJbr-KvCWnzafxYLd7-80" vertex="1">
          <mxGeometry x="141.25" y="99.54999999999995" width="45" height="25.38" as="geometry" />
        </mxCell>
        <mxCell id="NfaJbr-KvCWnzafxYLd7-85" value="" style="sketch=0;outlineConnect=0;fontColor=#232F3E;gradientColor=none;fillColor=#DD344C;strokeColor=none;dashed=0;verticalLabelPosition=bottom;verticalAlign=top;align=center;html=1;fontSize=12;fontStyle=0;aspect=fixed;pointerEvents=1;shape=mxgraph.aws4.data_encryption_key;" parent="NfaJbr-KvCWnzafxYLd7-80" vertex="1">
          <mxGeometry x="146.25" y="30" width="35" height="44.03" as="geometry" />
        </mxCell>
        <mxCell id="NfaJbr-KvCWnzafxYLd7-86" value="" style="sketch=0;outlineConnect=0;fontColor=#232F3E;gradientColor=none;fillColor=#7AA116;strokeColor=none;dashed=0;verticalLabelPosition=bottom;verticalAlign=top;align=center;html=1;fontSize=12;fontStyle=0;aspect=fixed;pointerEvents=1;shape=mxgraph.aws4.bucket;" parent="NfaJbr-KvCWnzafxYLd7-80" vertex="1">
          <mxGeometry x="88.75" y="94.03999999999996" width="35" height="36.4" as="geometry" />
        </mxCell>
        <mxCell id="NfaJbr-KvCWnzafxYLd7-43" value="Development Account" style="points=[[0,0],[0.25,0],[0.5,0],[0.75,0],[1,0],[1,0.25],[1,0.5],[1,0.75],[1,1],[0.75,1],[0.5,1],[0.25,1],[0,1],[0,0.75],[0,0.5],[0,0.25]];outlineConnect=0;gradientColor=none;html=1;whiteSpace=wrap;fontSize=12;fontStyle=0;container=1;pointerEvents=0;collapsible=0;recursiveResize=0;shape=mxgraph.aws4.group;grIcon=mxgraph.aws4.group_account;strokeColor=#CD2264;fillColor=none;verticalAlign=top;align=left;spacingLeft=30;fontColor=#CD2264;dashed=0;" parent="1" vertex="1">
          <mxGeometry x="575" y="725" width="250" height="200" as="geometry" />
        </mxCell>
        <mxCell id="NfaJbr-KvCWnzafxYLd7-44" value="Primary Region" style="points=[[0,0],[0.25,0],[0.5,0],[0.75,0],[1,0],[1,0.25],[1,0.5],[1,0.75],[1,1],[0.75,1],[0.5,1],[0.25,1],[0,1],[0,0.75],[0,0.5],[0,0.25]];outlineConnect=0;gradientColor=none;html=1;whiteSpace=wrap;fontSize=12;fontStyle=0;container=1;pointerEvents=0;collapsible=0;recursiveResize=0;shape=mxgraph.aws4.group;grIcon=mxgraph.aws4.group_region;strokeColor=#00A4A6;fillColor=none;verticalAlign=top;align=left;spacingLeft=30;fontColor=#147EBA;dashed=1;" parent="NfaJbr-KvCWnzafxYLd7-43" vertex="1">
          <mxGeometry x="20" y="30" width="210" height="150" as="geometry" />
        </mxCell>
        <mxCell id="NfaJbr-KvCWnzafxYLd7-45" value="" style="sketch=0;points=[[0,0,0],[0.25,0,0],[0.5,0,0],[0.75,0,0],[1,0,0],[0,1,0],[0.25,1,0],[0.5,1,0],[0.75,1,0],[1,1,0],[0,0.25,0],[0,0.5,0],[0,0.75,0],[1,0.25,0],[1,0.5,0],[1,0.75,0]];outlineConnect=0;fontColor=#232F3E;fillColor=#8C4FFF;strokeColor=#ffffff;dashed=0;verticalLabelPosition=bottom;verticalAlign=top;align=center;html=1;fontSize=12;fontStyle=0;aspect=fixed;shape=mxgraph.aws4.resourceIcon;resIcon=mxgraph.aws4.vpc;" parent="NfaJbr-KvCWnzafxYLd7-44" vertex="1">
          <mxGeometry x="23.75" y="34.02999999999997" width="40" height="40" as="geometry" />
        </mxCell>
        <mxCell id="NfaJbr-KvCWnzafxYLd7-46" value="" style="sketch=0;outlineConnect=0;fontColor=#232F3E;gradientColor=none;fillColor=#7AA116;strokeColor=none;dashed=0;verticalLabelPosition=bottom;verticalAlign=top;align=center;html=1;fontSize=12;fontStyle=0;aspect=fixed;pointerEvents=1;shape=mxgraph.aws4.backup_vault;" parent="NfaJbr-KvCWnzafxYLd7-44" vertex="1">
          <mxGeometry x="83.75" y="34.02999999999997" width="40" height="40" as="geometry" />
        </mxCell>
        <mxCell id="NfaJbr-KvCWnzafxYLd7-47" value="" style="sketch=0;outlineConnect=0;fontColor=#232F3E;gradientColor=none;fillColor=#8C4FFF;strokeColor=none;dashed=0;verticalLabelPosition=bottom;verticalAlign=top;align=center;html=1;fontSize=12;fontStyle=0;aspect=fixed;pointerEvents=1;shape=mxgraph.aws4.hosted_zone;" parent="NfaJbr-KvCWnzafxYLd7-44" vertex="1">
          <mxGeometry x="23.75" y="92.5" width="40" height="39.49" as="geometry" />
        </mxCell>
        <mxCell id="NfaJbr-KvCWnzafxYLd7-48" value="" style="sketch=0;outlineConnect=0;fontColor=#232F3E;gradientColor=none;fillColor=#DD344C;strokeColor=none;dashed=0;verticalLabelPosition=bottom;verticalAlign=top;align=center;html=1;fontSize=12;fontStyle=0;aspect=fixed;pointerEvents=1;shape=mxgraph.aws4.role;" parent="NfaJbr-KvCWnzafxYLd7-44" vertex="1">
          <mxGeometry x="141.25" y="99.54999999999995" width="45" height="25.38" as="geometry" />
        </mxCell>
        <mxCell id="NfaJbr-KvCWnzafxYLd7-49" value="" style="sketch=0;outlineConnect=0;fontColor=#232F3E;gradientColor=none;fillColor=#DD344C;strokeColor=none;dashed=0;verticalLabelPosition=bottom;verticalAlign=top;align=center;html=1;fontSize=12;fontStyle=0;aspect=fixed;pointerEvents=1;shape=mxgraph.aws4.data_encryption_key;" parent="NfaJbr-KvCWnzafxYLd7-44" vertex="1">
          <mxGeometry x="146.25" y="30" width="35" height="44.03" as="geometry" />
        </mxCell>
        <mxCell id="NfaJbr-KvCWnzafxYLd7-50" value="" style="sketch=0;outlineConnect=0;fontColor=#232F3E;gradientColor=none;fillColor=#7AA116;strokeColor=none;dashed=0;verticalLabelPosition=bottom;verticalAlign=top;align=center;html=1;fontSize=12;fontStyle=0;aspect=fixed;pointerEvents=1;shape=mxgraph.aws4.bucket;" parent="NfaJbr-KvCWnzafxYLd7-44" vertex="1">
          <mxGeometry x="88.75" y="94.03999999999996" width="35" height="36.4" as="geometry" />
        </mxCell>
        <mxCell id="Qru5Q0590M5BCUkLpALR-1" value="Management Account" style="points=[[0,0],[0.25,0],[0.5,0],[0.75,0],[1,0],[1,0.25],[1,0.5],[1,0.75],[1,1],[0.75,1],[0.5,1],[0.25,1],[0,1],[0,0.75],[0,0.5],[0,0.25]];outlineConnect=0;gradientColor=none;html=1;whiteSpace=wrap;fontSize=12;fontStyle=0;container=1;pointerEvents=0;collapsible=0;recursiveResize=0;shape=mxgraph.aws4.group;grIcon=mxgraph.aws4.group_account;strokeColor=#CD2264;fillColor=none;verticalAlign=top;align=left;spacingLeft=30;fontColor=#CD2264;dashed=0;" vertex="1" parent="1">
          <mxGeometry x="300" y="30" width="240" height="150" as="geometry" />
        </mxCell>
        <mxCell id="Qru5Q0590M5BCUkLpALR-2" value="AWS Control Tower" style="sketch=0;points=[[0,0,0],[0.25,0,0],[0.5,0,0],[0.75,0,0],[1,0,0],[0,1,0],[0.25,1,0],[0.5,1,0],[0.75,1,0],[1,1,0],[0,0.25,0],[0,0.5,0],[0,0.75,0],[1,0.25,0],[1,0.5,0],[1,0.75,0]];points=[[0,0,0],[0.25,0,0],[0.5,0,0],[0.75,0,0],[1,0,0],[0,1,0],[0.25,1,0],[0.5,1,0],[0.75,1,0],[1,1,0],[0,0.25,0],[0,0.5,0],[0,0.75,0],[1,0.25,0],[1,0.5,0],[1,0.75,0]];outlineConnect=0;fontColor=#232F3E;fillColor=#E7157B;strokeColor=#ffffff;dashed=0;verticalLabelPosition=bottom;verticalAlign=top;align=center;html=1;fontSize=12;fontStyle=0;aspect=fixed;shape=mxgraph.aws4.resourceIcon;resIcon=mxgraph.aws4.control_tower;" vertex="1" parent="Qru5Q0590M5BCUkLpALR-1">
          <mxGeometry x="30" y="45" width="60" height="60" as="geometry" />
        </mxCell>
        <mxCell id="Qru5Q0590M5BCUkLpALR-3" value="AWS Organizations" style="sketch=0;points=[[0,0,0],[0.25,0,0],[0.5,0,0],[0.75,0,0],[1,0,0],[0,1,0],[0.25,1,0],[0.5,1,0],[0.75,1,0],[1,1,0],[0,0.25,0],[0,0.5,0],[0,0.75,0],[1,0.25,0],[1,0.5,0],[1,0.75,0]];points=[[0,0,0],[0.25,0,0],[0.5,0,0],[0.75,0,0],[1,0,0],[0,1,0],[0.25,1,0],[0.5,1,0],[0.75,1,0],[1,1,0],[0,0.25,0],[0,0.5,0],[0,0.75,0],[1,0.25,0],[1,0.5,0],[1,0.75,0]];outlineConnect=0;fontColor=#232F3E;fillColor=#E7157B;strokeColor=#ffffff;dashed=0;verticalLabelPosition=bottom;verticalAlign=top;align=center;html=1;fontSize=12;fontStyle=0;aspect=fixed;shape=mxgraph.aws4.resourceIcon;resIcon=mxgraph.aws4.organizations;" vertex="1" parent="Qru5Q0590M5BCUkLpALR-1">
          <mxGeometry x="150" y="45" width="60" height="60" as="geometry" />
        </mxCell>
        <mxCell id="YjfebOg5OZ9o07Xbgp5e-1" value="Launch and manage" style="text;html=1;align=left;verticalAlign=middle;whiteSpace=wrap;rounded=0;" vertex="1" parent="1">
          <mxGeometry x="760" y="50" width="120" height="30" as="geometry" />
        </mxCell>
        <mxCell id="YjfebOg5OZ9o07Xbgp5e-2" value="" style="endArrow=none;html=1;rounded=0;" edge="1" parent="1">
          <mxGeometry width="50" height="50" relative="1" as="geometry">
            <mxPoint x="765" y="80" as="sourcePoint" />
            <mxPoint x="860" y="80" as="targetPoint" />
          </mxGeometry>
        </mxCell>
        <mxCell id="YjfebOg5OZ9o07Xbgp5e-3" value="Manage" style="text;html=1;align=left;verticalAlign=middle;whiteSpace=wrap;rounded=0;" vertex="1" parent="1">
          <mxGeometry x="760" y="89" width="120" height="30" as="geometry" />
        </mxCell>
        <mxCell id="YjfebOg5OZ9o07Xbgp5e-4" value="" style="endArrow=none;html=1;rounded=0;dashed=1;" edge="1" parent="1">
          <mxGeometry width="50" height="50" relative="1" as="geometry">
            <mxPoint x="765" y="119" as="sourcePoint" />
            <mxPoint x="860" y="119" as="targetPoint" />
          </mxGeometry>
        </mxCell>
        <mxCell id="YjfebOg5OZ9o07Xbgp5e-5" value="Delegate" style="text;html=1;align=left;verticalAlign=middle;whiteSpace=wrap;rounded=0;" vertex="1" parent="1">
          <mxGeometry x="760" y="129" width="120" height="30" as="geometry" />
        </mxCell>
        <mxCell id="YjfebOg5OZ9o07Xbgp5e-6" value="" style="endArrow=none;html=1;rounded=0;dashed=1;dashPattern=12 12;" edge="1" parent="1">
          <mxGeometry width="50" height="50" relative="1" as="geometry">
            <mxPoint x="765" y="159" as="sourcePoint" />
            <mxPoint x="860" y="159" as="targetPoint" />
          </mxGeometry>
        </mxCell>
        <mxCell id="c5vxTqB_iUtsMUP7TXLd-1" style="edgeStyle=orthogonalEdgeStyle;rounded=0;orthogonalLoop=1;jettySize=auto;html=1;startArrow=classic;startFill=1;endArrow=none;endFill=0;dashed=1;dashPattern=12 12;" edge="1" parent="1">
          <mxGeometry relative="1" as="geometry">
            <mxPoint x="-10" y="360" as="targetPoint" />
            <mxPoint x="111" y="589" as="sourcePoint" />
          </mxGeometry>
        </mxCell>
        <mxCell id="c5vxTqB_iUtsMUP7TXLd-2" style="edgeStyle=orthogonalEdgeStyle;rounded=0;orthogonalLoop=1;jettySize=auto;html=1;dashed=1;dashPattern=12 12;" edge="1" parent="1">
          <mxGeometry relative="1" as="geometry">
            <mxPoint x="111" y="352" as="targetPoint" />
            <mxPoint x="480" y="75" as="sourcePoint" />
            <Array as="points">
              <mxPoint x="480" />
              <mxPoint x="-9" />
              <mxPoint x="-9" y="352" />
            </Array>
          </mxGeometry>
        </mxCell>
      </root>
    </mxGraphModel>
  </diagram>
  <diagram id="wakst0tqdsNOufaAzumG" name="multi-region-advanced">
    <mxGraphModel dx="2924" dy="2314" grid="1" gridSize="10" guides="1" tooltips="1" connect="1" arrows="1" fold="1" page="1" pageScale="1" pageWidth="850" pageHeight="1100" math="0" shadow="0">
      <root>
        <mxCell id="0" />
        <mxCell id="1" parent="0" />
        <mxCell id="Xv4ESuQ0aM9hgQVKN3r8-1" style="edgeStyle=orthogonalEdgeStyle;rounded=0;orthogonalLoop=1;jettySize=auto;html=1;startArrow=classic;startFill=1;dashed=1;endArrow=none;endFill=0;" parent="1" target="Xv4ESuQ0aM9hgQVKN3r8-19" edge="1">
          <mxGeometry relative="1" as="geometry">
            <mxPoint x="420" y="180" as="sourcePoint" />
          </mxGeometry>
        </mxCell>
        <mxCell id="Xv4ESuQ0aM9hgQVKN3r8-4" value="Audit Account" style="points=[[0,0],[0.25,0],[0.5,0],[0.75,0],[1,0],[1,0.25],[1,0.5],[1,0.75],[1,1],[0.75,1],[0.5,1],[0.25,1],[0,1],[0,0.75],[0,0.5],[0,0.25]];outlineConnect=0;gradientColor=none;html=1;whiteSpace=wrap;fontSize=12;fontStyle=0;container=1;pointerEvents=0;collapsible=0;recursiveResize=0;shape=mxgraph.aws4.group;grIcon=mxgraph.aws4.group_account;strokeColor=#CD2264;fillColor=none;verticalAlign=top;align=left;spacingLeft=30;fontColor=#CD2264;dashed=0;" parent="1" vertex="1">
          <mxGeometry x="100" y="30" width="170" height="150" as="geometry" />
        </mxCell>
        <mxCell id="Xv4ESuQ0aM9hgQVKN3r8-5" value="AWS Config" style="sketch=0;points=[[0,0,0],[0.25,0,0],[0.5,0,0],[0.75,0,0],[1,0,0],[0,1,0],[0.25,1,0],[0.5,1,0],[0.75,1,0],[1,1,0],[0,0.25,0],[0,0.5,0],[0,0.75,0],[1,0.25,0],[1,0.5,0],[1,0.75,0]];points=[[0,0,0],[0.25,0,0],[0.5,0,0],[0.75,0,0],[1,0,0],[0,1,0],[0.25,1,0],[0.5,1,0],[0.75,1,0],[1,1,0],[0,0.25,0],[0,0.5,0],[0,0.75,0],[1,0.25,0],[1,0.5,0],[1,0.75,0]];outlineConnect=0;fontColor=#232F3E;fillColor=#E7157B;strokeColor=#ffffff;dashed=0;verticalLabelPosition=bottom;verticalAlign=top;align=center;html=1;fontSize=12;fontStyle=0;aspect=fixed;shape=mxgraph.aws4.resourceIcon;resIcon=mxgraph.aws4.config;" parent="Xv4ESuQ0aM9hgQVKN3r8-4" vertex="1">
          <mxGeometry x="46" y="36" width="78" height="78" as="geometry" />
        </mxCell>
        <mxCell id="Xv4ESuQ0aM9hgQVKN3r8-6" value="Log Archive Account" style="points=[[0,0],[0.25,0],[0.5,0],[0.75,0],[1,0],[1,0.25],[1,0.5],[1,0.75],[1,1],[0.75,1],[0.5,1],[0.25,1],[0,1],[0,0.75],[0,0.5],[0,0.25]];outlineConnect=0;gradientColor=none;html=1;whiteSpace=wrap;fontSize=12;fontStyle=0;container=1;pointerEvents=0;collapsible=0;recursiveResize=0;shape=mxgraph.aws4.group;grIcon=mxgraph.aws4.group_account;strokeColor=#CD2264;fillColor=none;verticalAlign=top;align=left;spacingLeft=30;fontColor=#CD2264;dashed=0;" parent="1" vertex="1">
          <mxGeometry x="570" y="30" width="170" height="150" as="geometry" />
        </mxCell>
        <mxCell id="Xv4ESuQ0aM9hgQVKN3r8-7" value="Logs" style="sketch=0;outlineConnect=0;fontColor=#232F3E;gradientColor=none;fillColor=#7AA116;strokeColor=none;dashed=0;verticalLabelPosition=bottom;verticalAlign=top;align=center;html=1;fontSize=12;fontStyle=0;aspect=fixed;pointerEvents=1;shape=mxgraph.aws4.bucket_with_objects;" parent="Xv4ESuQ0aM9hgQVKN3r8-6" vertex="1">
          <mxGeometry x="47.5" y="36" width="75" height="78" as="geometry" />
        </mxCell>
        <mxCell id="Xv4ESuQ0aM9hgQVKN3r8-8" value="Identity Account" style="points=[[0,0],[0.25,0],[0.5,0],[0.75,0],[1,0],[1,0.25],[1,0.5],[1,0.75],[1,1],[0.75,1],[0.5,1],[0.25,1],[0,1],[0,0.75],[0,0.5],[0,0.25]];outlineConnect=0;gradientColor=none;html=1;whiteSpace=wrap;fontSize=12;fontStyle=0;container=1;pointerEvents=0;collapsible=0;recursiveResize=0;shape=mxgraph.aws4.group;grIcon=mxgraph.aws4.group_account;strokeColor=#CD2264;fillColor=none;verticalAlign=top;align=left;spacingLeft=30;fontColor=#CD2264;dashed=0;" parent="1" vertex="1">
          <mxGeometry x="25" y="250" width="250" height="210" as="geometry" />
        </mxCell>
        <mxCell id="Xv4ESuQ0aM9hgQVKN3r8-9" value="Primary Region" style="points=[[0,0],[0.25,0],[0.5,0],[0.75,0],[1,0],[1,0.25],[1,0.5],[1,0.75],[1,1],[0.75,1],[0.5,1],[0.25,1],[0,1],[0,0.75],[0,0.5],[0,0.25]];outlineConnect=0;gradientColor=none;html=1;whiteSpace=wrap;fontSize=12;fontStyle=0;container=1;pointerEvents=0;collapsible=0;recursiveResize=0;shape=mxgraph.aws4.group;grIcon=mxgraph.aws4.group_region;strokeColor=#00A4A6;fillColor=none;verticalAlign=top;align=left;spacingLeft=30;fontColor=#147EBA;dashed=1;" parent="Xv4ESuQ0aM9hgQVKN3r8-8" vertex="1">
          <mxGeometry x="20" y="30" width="210" height="160" as="geometry" />
        </mxCell>
        <mxCell id="Xv4ESuQ0aM9hgQVKN3r8-10" value="AWS IAM Identity Center&lt;div&gt;(identity management)&lt;/div&gt;" style="sketch=0;points=[[0,0,0],[0.25,0,0],[0.5,0,0],[0.75,0,0],[1,0,0],[0,1,0],[0.25,1,0],[0.5,1,0],[0.75,1,0],[1,1,0],[0,0.25,0],[0,0.5,0],[0,0.75,0],[1,0.25,0],[1,0.5,0],[1,0.75,0]];outlineConnect=0;fontColor=#232F3E;fillColor=#DD344C;strokeColor=#ffffff;dashed=0;verticalLabelPosition=bottom;verticalAlign=top;align=center;html=1;fontSize=12;fontStyle=0;aspect=fixed;shape=mxgraph.aws4.resourceIcon;resIcon=mxgraph.aws4.single_sign_on;" parent="Xv4ESuQ0aM9hgQVKN3r8-9" vertex="1">
          <mxGeometry x="66" y="33.019999999999996" width="78" height="78" as="geometry" />
        </mxCell>
        <mxCell id="Xv4ESuQ0aM9hgQVKN3r8-11" style="edgeStyle=orthogonalEdgeStyle;rounded=0;orthogonalLoop=1;jettySize=auto;html=1;entryX=1;entryY=0.5;entryDx=0;entryDy=0;" parent="1" source="Xv4ESuQ0aM9hgQVKN3r8-19" target="Xv4ESuQ0aM9hgQVKN3r8-8" edge="1">
          <mxGeometry relative="1" as="geometry" />
        </mxCell>
        <mxCell id="Xv4ESuQ0aM9hgQVKN3r8-12" style="edgeStyle=orthogonalEdgeStyle;rounded=0;orthogonalLoop=1;jettySize=auto;html=1;" parent="1" source="Xv4ESuQ0aM9hgQVKN3r8-19" target="Xv4ESuQ0aM9hgQVKN3r8-21" edge="1">
          <mxGeometry relative="1" as="geometry" />
        </mxCell>
        <mxCell id="Xv4ESuQ0aM9hgQVKN3r8-13" style="edgeStyle=orthogonalEdgeStyle;rounded=0;orthogonalLoop=1;jettySize=auto;html=1;entryX=1;entryY=0.5;entryDx=0;entryDy=0;" parent="1" source="Xv4ESuQ0aM9hgQVKN3r8-19" target="Xv4ESuQ0aM9hgQVKN3r8-26" edge="1">
          <mxGeometry relative="1" as="geometry" />
        </mxCell>
        <mxCell id="Xv4ESuQ0aM9hgQVKN3r8-14" style="edgeStyle=orthogonalEdgeStyle;rounded=0;orthogonalLoop=1;jettySize=auto;html=1;entryX=0;entryY=0.5;entryDx=0;entryDy=0;" parent="1" source="Xv4ESuQ0aM9hgQVKN3r8-19" target="Xv4ESuQ0aM9hgQVKN3r8-46" edge="1">
          <mxGeometry relative="1" as="geometry">
            <mxPoint x="645" y="590" as="targetPoint" />
          </mxGeometry>
        </mxCell>
        <mxCell id="Xv4ESuQ0aM9hgQVKN3r8-15" style="edgeStyle=orthogonalEdgeStyle;rounded=0;orthogonalLoop=1;jettySize=auto;html=1;entryX=0;entryY=0.5;entryDx=0;entryDy=0;" parent="1" source="Xv4ESuQ0aM9hgQVKN3r8-19" target="Xv4ESuQ0aM9hgQVKN3r8-31" edge="1">
          <mxGeometry relative="1" as="geometry" />
        </mxCell>
        <mxCell id="Xv4ESuQ0aM9hgQVKN3r8-16" style="edgeStyle=orthogonalEdgeStyle;rounded=0;orthogonalLoop=1;jettySize=auto;html=1;entryX=0.5;entryY=1;entryDx=0;entryDy=0;dashed=1;" parent="1" source="Xv4ESuQ0aM9hgQVKN3r8-19" target="Xv4ESuQ0aM9hgQVKN3r8-4" edge="1">
          <mxGeometry relative="1" as="geometry">
            <Array as="points">
              <mxPoint x="370" y="220" />
              <mxPoint x="185" y="220" />
            </Array>
          </mxGeometry>
        </mxCell>
        <mxCell id="Xv4ESuQ0aM9hgQVKN3r8-17" style="edgeStyle=orthogonalEdgeStyle;rounded=0;orthogonalLoop=1;jettySize=auto;html=1;entryX=0.5;entryY=1;entryDx=0;entryDy=0;dashed=1;" parent="1" source="Xv4ESuQ0aM9hgQVKN3r8-19" target="Xv4ESuQ0aM9hgQVKN3r8-6" edge="1">
          <mxGeometry relative="1" as="geometry">
            <Array as="points">
              <mxPoint x="460" y="220" />
              <mxPoint x="655" y="220" />
            </Array>
          </mxGeometry>
        </mxCell>
        <mxCell id="Xv4ESuQ0aM9hgQVKN3r8-18" style="edgeStyle=orthogonalEdgeStyle;rounded=0;orthogonalLoop=1;jettySize=auto;html=1;entryX=0;entryY=0.5;entryDx=0;entryDy=0;" parent="1" source="Xv4ESuQ0aM9hgQVKN3r8-19" target="Xv4ESuQ0aM9hgQVKN3r8-61" edge="1">
          <mxGeometry relative="1" as="geometry" />
        </mxCell>
        <mxCell id="Xv4ESuQ0aM9hgQVKN3r8-19" value="AFT Account" style="points=[[0,0],[0.25,0],[0.5,0],[0.75,0],[1,0],[1,0.25],[1,0.5],[1,0.75],[1,1],[0.75,1],[0.5,1],[0.25,1],[0,1],[0,0.75],[0,0.5],[0,0.25]];outlineConnect=0;gradientColor=none;html=1;whiteSpace=wrap;fontSize=12;fontStyle=0;container=1;pointerEvents=0;collapsible=0;recursiveResize=0;shape=mxgraph.aws4.group;grIcon=mxgraph.aws4.group_account;strokeColor=#CD2264;fillColor=none;verticalAlign=top;align=left;spacingLeft=30;fontColor=#CD2264;dashed=0;" parent="1" vertex="1">
          <mxGeometry x="335" y="515" width="170" height="150" as="geometry" />
        </mxCell>
        <mxCell id="Xv4ESuQ0aM9hgQVKN3r8-20" value="Account Factory for Terraform" style="sketch=0;points=[[0,0,0],[0.25,0,0],[0.5,0,0],[0.75,0,0],[1,0,0],[0,1,0],[0.25,1,0],[0.5,1,0],[0.75,1,0],[1,1,0],[0,0.25,0],[0,0.5,0],[0,0.75,0],[1,0.25,0],[1,0.5,0],[1,0.75,0]];gradientDirection=north;outlineConnect=0;fontColor=#232F3E;gradientColor=none;fillColor=#1E262E;strokeColor=#ffffff;dashed=0;verticalLabelPosition=bottom;verticalAlign=top;align=center;html=1;fontSize=12;fontStyle=0;aspect=fixed;shape=mxgraph.aws4.resourceIcon;resIcon=mxgraph.aws4.general;" parent="Xv4ESuQ0aM9hgQVKN3r8-19" vertex="1">
          <mxGeometry x="46" y="36" width="78" height="78" as="geometry" />
        </mxCell>
        <mxCell id="Xv4ESuQ0aM9hgQVKN3r8-21" value="Backup Account" style="points=[[0,0],[0.25,0],[0.5,0],[0.75,0],[1,0],[1,0.25],[1,0.5],[1,0.75],[1,1],[0.75,1],[0.5,1],[0.25,1],[0,1],[0,0.75],[0,0.5],[0,0.25]];outlineConnect=0;gradientColor=none;html=1;whiteSpace=wrap;fontSize=12;fontStyle=0;container=1;pointerEvents=0;collapsible=0;recursiveResize=0;shape=mxgraph.aws4.group;grIcon=mxgraph.aws4.group_account;strokeColor=#CD2264;fillColor=none;verticalAlign=top;align=left;spacingLeft=30;fontColor=#CD2264;dashed=0;" parent="1" vertex="1">
          <mxGeometry x="-210" y="485" width="485" height="210" as="geometry" />
        </mxCell>
        <mxCell id="Xv4ESuQ0aM9hgQVKN3r8-22" value="Primary Region" style="points=[[0,0],[0.25,0],[0.5,0],[0.75,0],[1,0],[1,0.25],[1,0.5],[1,0.75],[1,1],[0.75,1],[0.5,1],[0.25,1],[0,1],[0,0.75],[0,0.5],[0,0.25]];outlineConnect=0;gradientColor=none;html=1;whiteSpace=wrap;fontSize=12;fontStyle=0;container=1;pointerEvents=0;collapsible=0;recursiveResize=0;shape=mxgraph.aws4.group;grIcon=mxgraph.aws4.group_region;strokeColor=#00A4A6;fillColor=none;verticalAlign=top;align=left;spacingLeft=30;fontColor=#147EBA;dashed=1;" parent="Xv4ESuQ0aM9hgQVKN3r8-21" vertex="1">
          <mxGeometry x="20" y="30.9" width="210" height="160" as="geometry" />
        </mxCell>
        <mxCell id="JkV1mj7-0JUoLTIJEFuj-3" style="edgeStyle=orthogonalEdgeStyle;rounded=0;orthogonalLoop=1;jettySize=auto;html=1;startArrow=classic;startFill=1;endArrow=none;endFill=0;dashed=1;dashPattern=12 12;" edge="1" parent="Xv4ESuQ0aM9hgQVKN3r8-22" source="Xv4ESuQ0aM9hgQVKN3r8-23">
          <mxGeometry relative="1" as="geometry">
            <mxPoint x="180" y="73.12999999999977" as="targetPoint" />
          </mxGeometry>
        </mxCell>
        <mxCell id="Xv4ESuQ0aM9hgQVKN3r8-23" value="AWS Backup&lt;div&gt;(centralized backup)&lt;/div&gt;" style="sketch=0;points=[[0,0,0],[0.25,0,0],[0.5,0,0],[0.75,0,0],[1,0,0],[0,1,0],[0.25,1,0],[0.5,1,0],[0.75,1,0],[1,1,0],[0,0.25,0],[0,0.5,0],[0,0.75,0],[1,0.25,0],[1,0.5,0],[1,0.75,0]];outlineConnect=0;fontColor=#232F3E;fillColor=#7AA116;strokeColor=#ffffff;dashed=0;verticalLabelPosition=bottom;verticalAlign=top;align=center;html=1;fontSize=12;fontStyle=0;aspect=fixed;shape=mxgraph.aws4.resourceIcon;resIcon=mxgraph.aws4.backup;" parent="Xv4ESuQ0aM9hgQVKN3r8-22" vertex="1">
          <mxGeometry x="66" y="34.129999999999995" width="78" height="78" as="geometry" />
        </mxCell>
        <mxCell id="Xv4ESuQ0aM9hgQVKN3r8-24" value="Secondary Region" style="points=[[0,0],[0.25,0],[0.5,0],[0.75,0],[1,0],[1,0.25],[1,0.5],[1,0.75],[1,1],[0.75,1],[0.5,1],[0.25,1],[0,1],[0,0.75],[0,0.5],[0,0.25]];outlineConnect=0;gradientColor=none;html=1;whiteSpace=wrap;fontSize=12;fontStyle=0;container=1;pointerEvents=0;collapsible=0;recursiveResize=0;shape=mxgraph.aws4.group;grIcon=mxgraph.aws4.group_region;strokeColor=#00A4A6;fillColor=none;verticalAlign=top;align=left;spacingLeft=30;fontColor=#147EBA;dashed=1;" parent="Xv4ESuQ0aM9hgQVKN3r8-21" vertex="1">
          <mxGeometry x="250" y="30.9" width="210" height="160" as="geometry" />
        </mxCell>
        <mxCell id="Xv4ESuQ0aM9hgQVKN3r8-25" value="AWS Backup&lt;div&gt;(centralized backup)&lt;/div&gt;" style="sketch=0;points=[[0,0,0],[0.25,0,0],[0.5,0,0],[0.75,0,0],[1,0,0],[0,1,0],[0.25,1,0],[0.5,1,0],[0.75,1,0],[1,1,0],[0,0.25,0],[0,0.5,0],[0,0.75,0],[1,0.25,0],[1,0.5,0],[1,0.75,0]];outlineConnect=0;fontColor=#232F3E;fillColor=#7AA116;strokeColor=#ffffff;dashed=0;verticalLabelPosition=bottom;verticalAlign=top;align=center;html=1;fontSize=12;fontStyle=0;aspect=fixed;shape=mxgraph.aws4.resourceIcon;resIcon=mxgraph.aws4.backup;" parent="Xv4ESuQ0aM9hgQVKN3r8-24" vertex="1">
          <mxGeometry x="66" y="34.129999999999995" width="78" height="78" as="geometry" />
        </mxCell>
        <mxCell id="Xv4ESuQ0aM9hgQVKN3r8-26" value="Network Account" style="points=[[0,0],[0.25,0],[0.5,0],[0.75,0],[1,0],[1,0.25],[1,0.5],[1,0.75],[1,1],[0.75,1],[0.5,1],[0.25,1],[0,1],[0,0.75],[0,0.5],[0,0.25]];outlineConnect=0;gradientColor=none;html=1;whiteSpace=wrap;fontSize=12;fontStyle=0;container=1;pointerEvents=0;collapsible=0;recursiveResize=0;shape=mxgraph.aws4.group;grIcon=mxgraph.aws4.group_account;strokeColor=#CD2264;fillColor=none;verticalAlign=top;align=left;spacingLeft=30;fontColor=#CD2264;dashed=0;" parent="1" vertex="1">
          <mxGeometry x="-210" y="720" width="485" height="410" as="geometry" />
        </mxCell>
        <mxCell id="Xv4ESuQ0aM9hgQVKN3r8-27" value="Primary Region" style="points=[[0,0],[0.25,0],[0.5,0],[0.75,0],[1,0],[1,0.25],[1,0.5],[1,0.75],[1,1],[0.75,1],[0.5,1],[0.25,1],[0,1],[0,0.75],[0,0.5],[0,0.25]];outlineConnect=0;gradientColor=none;html=1;whiteSpace=wrap;fontSize=12;fontStyle=0;container=1;pointerEvents=0;collapsible=0;recursiveResize=0;shape=mxgraph.aws4.group;grIcon=mxgraph.aws4.group_region;strokeColor=#00A4A6;fillColor=none;verticalAlign=top;align=left;spacingLeft=30;fontColor=#147EBA;dashed=1;" parent="Xv4ESuQ0aM9hgQVKN3r8-26" vertex="1">
          <mxGeometry x="20" y="30" width="210" height="360" as="geometry" />
        </mxCell>
        <mxCell id="IjH5tA_rnRvIrGwTG64k-2" value="Site-to-Site VPN" style="sketch=0;points=[[0,0,0],[0.25,0,0],[0.5,0,0],[0.75,0,0],[1,0,0],[0,1,0],[0.25,1,0],[0.5,1,0],[0.75,1,0],[1,1,0],[0,0.25,0],[0,0.5,0],[0,0.75,0],[1,0.25,0],[1,0.5,0],[1,0.75,0]];outlineConnect=0;fontColor=#232F3E;fillColor=#8C4FFF;strokeColor=#ffffff;dashed=0;verticalLabelPosition=bottom;verticalAlign=top;align=center;html=1;fontSize=12;fontStyle=0;aspect=fixed;shape=mxgraph.aws4.resourceIcon;resIcon=mxgraph.aws4.site_to_site_vpn;" parent="Xv4ESuQ0aM9hgQVKN3r8-27" vertex="1">
          <mxGeometry x="25" y="270" width="60" height="60" as="geometry" />
        </mxCell>
        <mxCell id="nUmzlf3Yebu5T6Gd8_0C-1" value="Endpoints&lt;div&gt;&lt;br&gt;&lt;/div&gt;" style="sketch=0;outlineConnect=0;fontColor=#232F3E;gradientColor=none;fillColor=#8C4FFF;strokeColor=none;dashed=0;verticalLabelPosition=bottom;verticalAlign=top;align=center;html=1;fontSize=12;fontStyle=0;aspect=fixed;pointerEvents=1;shape=mxgraph.aws4.endpoints;" parent="Xv4ESuQ0aM9hgQVKN3r8-27" vertex="1">
          <mxGeometry x="130" y="160" width="60" height="60" as="geometry" />
        </mxCell>
        <mxCell id="nUmzlf3Yebu5T6Gd8_0C-3" value="Direct Connect" style="sketch=0;points=[[0,0,0],[0.25,0,0],[0.5,0,0],[0.75,0,0],[1,0,0],[0,1,0],[0.25,1,0],[0.5,1,0],[0.75,1,0],[1,1,0],[0,0.25,0],[0,0.5,0],[0,0.75,0],[1,0.25,0],[1,0.5,0],[1,0.75,0]];outlineConnect=0;fontColor=#232F3E;fillColor=#8C4FFF;strokeColor=#ffffff;dashed=0;verticalLabelPosition=bottom;verticalAlign=top;align=center;html=1;fontSize=12;fontStyle=0;aspect=fixed;shape=mxgraph.aws4.resourceIcon;resIcon=mxgraph.aws4.direct_connect;" parent="Xv4ESuQ0aM9hgQVKN3r8-27" vertex="1">
          <mxGeometry x="130" y="270" width="60" height="60" as="geometry" />
        </mxCell>
        <mxCell id="Xv4ESuQ0aM9hgQVKN3r8-29" value="Secondary Region" style="points=[[0,0],[0.25,0],[0.5,0],[0.75,0],[1,0],[1,0.25],[1,0.5],[1,0.75],[1,1],[0.75,1],[0.5,1],[0.25,1],[0,1],[0,0.75],[0,0.5],[0,0.25]];outlineConnect=0;gradientColor=none;html=1;whiteSpace=wrap;fontSize=12;fontStyle=0;container=1;pointerEvents=0;collapsible=0;recursiveResize=0;shape=mxgraph.aws4.group;grIcon=mxgraph.aws4.group_region;strokeColor=#00A4A6;fillColor=none;verticalAlign=top;align=left;spacingLeft=30;fontColor=#147EBA;dashed=1;" parent="Xv4ESuQ0aM9hgQVKN3r8-26" vertex="1">
          <mxGeometry x="250" y="30" width="210" height="360" as="geometry" />
        </mxCell>
        <mxCell id="Xv4ESuQ0aM9hgQVKN3r8-28" value="Transit Gateway&lt;div&gt;(network routing)&lt;/div&gt;" style="sketch=0;points=[[0,0,0],[0.25,0,0],[0.5,0,0],[0.75,0,0],[1,0,0],[0,1,0],[0.25,1,0],[0.5,1,0],[0.75,1,0],[1,1,0],[0,0.25,0],[0,0.5,0],[0,0.75,0],[1,0.25,0],[1,0.5,0],[1,0.75,0]];outlineConnect=0;fontColor=#232F3E;fillColor=#8C4FFF;strokeColor=#ffffff;dashed=0;verticalLabelPosition=bottom;verticalAlign=top;align=center;html=1;fontSize=12;fontStyle=0;aspect=fixed;shape=mxgraph.aws4.resourceIcon;resIcon=mxgraph.aws4.transit_gateway;" parent="Xv4ESuQ0aM9hgQVKN3r8-29" vertex="1">
          <mxGeometry x="-200" y="50" width="60" height="60" as="geometry" />
        </mxCell>
        <mxCell id="Xv4ESuQ0aM9hgQVKN3r8-73" value="Network Firewall&lt;div&gt;(inspection)&lt;/div&gt;" style="sketch=0;points=[[0,0,0],[0.25,0,0],[0.5,0,0],[0.75,0,0],[1,0,0],[0,1,0],[0.25,1,0],[0.5,1,0],[0.75,1,0],[1,1,0],[0,0.25,0],[0,0.5,0],[0,0.75,0],[1,0.25,0],[1,0.5,0],[1,0.75,0]];outlineConnect=0;fontColor=#232F3E;fillColor=#DD344C;strokeColor=#ffffff;dashed=0;verticalLabelPosition=bottom;verticalAlign=top;align=center;html=1;fontSize=12;fontStyle=0;aspect=fixed;shape=mxgraph.aws4.resourceIcon;resIcon=mxgraph.aws4.network_firewall;" parent="Xv4ESuQ0aM9hgQVKN3r8-29" vertex="1">
          <mxGeometry x="-100" y="49.99999999999997" width="60" height="60" as="geometry" />
        </mxCell>
        <mxCell id="Xv4ESuQ0aM9hgQVKN3r8-74" value="Transit Gateway&lt;div&gt;(network routing)&lt;/div&gt;" style="sketch=0;points=[[0,0,0],[0.25,0,0],[0.5,0,0],[0.75,0,0],[1,0,0],[0,1,0],[0.25,1,0],[0.5,1,0],[0.75,1,0],[1,1,0],[0,0.25,0],[0,0.5,0],[0,0.75,0],[1,0.25,0],[1,0.5,0],[1,0.75,0]];outlineConnect=0;fontColor=#232F3E;fillColor=#8C4FFF;strokeColor=#ffffff;dashed=0;verticalLabelPosition=bottom;verticalAlign=top;align=center;html=1;fontSize=12;fontStyle=0;aspect=fixed;shape=mxgraph.aws4.resourceIcon;resIcon=mxgraph.aws4.transit_gateway;" parent="Xv4ESuQ0aM9hgQVKN3r8-29" vertex="1">
          <mxGeometry x="25" y="50" width="60" height="60" as="geometry" />
        </mxCell>
        <mxCell id="Xv4ESuQ0aM9hgQVKN3r8-75" value="Network Firewall&lt;div&gt;(inspection)&lt;/div&gt;" style="sketch=0;points=[[0,0,0],[0.25,0,0],[0.5,0,0],[0.75,0,0],[1,0,0],[0,1,0],[0.25,1,0],[0.5,1,0],[0.75,1,0],[1,1,0],[0,0.25,0],[0,0.5,0],[0,0.75,0],[1,0.25,0],[1,0.5,0],[1,0.75,0]];outlineConnect=0;fontColor=#232F3E;fillColor=#DD344C;strokeColor=#ffffff;dashed=0;verticalLabelPosition=bottom;verticalAlign=top;align=center;html=1;fontSize=12;fontStyle=0;aspect=fixed;shape=mxgraph.aws4.resourceIcon;resIcon=mxgraph.aws4.network_firewall;" parent="Xv4ESuQ0aM9hgQVKN3r8-29" vertex="1">
          <mxGeometry x="125" y="49.99999999999997" width="60" height="60" as="geometry" />
        </mxCell>
        <mxCell id="R1wrfTCuZAZl9XFfE9gW-2" value="Route 53&lt;div&gt;(centralized DNS)&lt;/div&gt;" style="sketch=0;points=[[0,0,0],[0.25,0,0],[0.5,0,0],[0.75,0,0],[1,0,0],[0,1,0],[0.25,1,0],[0.5,1,0],[0.75,1,0],[1,1,0],[0,0.25,0],[0,0.5,0],[0,0.75,0],[1,0.25,0],[1,0.5,0],[1,0.75,0]];outlineConnect=0;fontColor=#232F3E;fillColor=#8C4FFF;strokeColor=#ffffff;dashed=0;verticalLabelPosition=bottom;verticalAlign=top;align=center;html=1;fontSize=12;fontStyle=0;aspect=fixed;shape=mxgraph.aws4.resourceIcon;resIcon=mxgraph.aws4.route_53;" parent="Xv4ESuQ0aM9hgQVKN3r8-29" vertex="1">
          <mxGeometry x="25" y="160" width="60" height="60" as="geometry" />
        </mxCell>
        <mxCell id="IjH5tA_rnRvIrGwTG64k-1" value="Site-to-Site VPN" style="sketch=0;points=[[0,0,0],[0.25,0,0],[0.5,0,0],[0.75,0,0],[1,0,0],[0,1,0],[0.25,1,0],[0.5,1,0],[0.75,1,0],[1,1,0],[0,0.25,0],[0,0.5,0],[0,0.75,0],[1,0.25,0],[1,0.5,0],[1,0.75,0]];outlineConnect=0;fontColor=#232F3E;fillColor=#8C4FFF;strokeColor=#ffffff;dashed=0;verticalLabelPosition=bottom;verticalAlign=top;align=center;html=1;fontSize=12;fontStyle=0;aspect=fixed;shape=mxgraph.aws4.resourceIcon;resIcon=mxgraph.aws4.site_to_site_vpn;" parent="Xv4ESuQ0aM9hgQVKN3r8-29" vertex="1">
          <mxGeometry x="20" y="270" width="60" height="60" as="geometry" />
        </mxCell>
        <mxCell id="nUmzlf3Yebu5T6Gd8_0C-2" value="Endpoints&lt;div&gt;&lt;br&gt;&lt;/div&gt;" style="sketch=0;outlineConnect=0;fontColor=#232F3E;gradientColor=none;fillColor=#8C4FFF;strokeColor=none;dashed=0;verticalLabelPosition=bottom;verticalAlign=top;align=center;html=1;fontSize=12;fontStyle=0;aspect=fixed;pointerEvents=1;shape=mxgraph.aws4.endpoints;" parent="Xv4ESuQ0aM9hgQVKN3r8-29" vertex="1">
          <mxGeometry x="125" y="160" width="60" height="60" as="geometry" />
        </mxCell>
        <mxCell id="nUmzlf3Yebu5T6Gd8_0C-4" value="Direct Connect" style="sketch=0;points=[[0,0,0],[0.25,0,0],[0.5,0,0],[0.75,0,0],[1,0,0],[0,1,0],[0.25,1,0],[0.5,1,0],[0.75,1,0],[1,1,0],[0,0.25,0],[0,0.5,0],[0,0.75,0],[1,0.25,0],[1,0.5,0],[1,0.75,0]];outlineConnect=0;fontColor=#232F3E;fillColor=#8C4FFF;strokeColor=#ffffff;dashed=0;verticalLabelPosition=bottom;verticalAlign=top;align=center;html=1;fontSize=12;fontStyle=0;aspect=fixed;shape=mxgraph.aws4.resourceIcon;resIcon=mxgraph.aws4.direct_connect;" parent="Xv4ESuQ0aM9hgQVKN3r8-29" vertex="1">
          <mxGeometry x="125" y="270" width="60" height="60" as="geometry" />
        </mxCell>
        <mxCell id="Xv4ESuQ0aM9hgQVKN3r8-31" value="Production Account" style="points=[[0,0],[0.25,0],[0.5,0],[0.75,0],[1,0],[1,0.25],[1,0.5],[1,0.75],[1,1],[0.75,1],[0.5,1],[0.25,1],[0,1],[0,0.75],[0,0.5],[0,0.25]];outlineConnect=0;gradientColor=none;html=1;whiteSpace=wrap;fontSize=12;fontStyle=0;container=1;pointerEvents=0;collapsible=0;recursiveResize=0;shape=mxgraph.aws4.group;grIcon=mxgraph.aws4.group_account;strokeColor=#CD2264;fillColor=none;verticalAlign=top;align=left;spacingLeft=30;fontColor=#CD2264;dashed=0;" parent="1" vertex="1">
          <mxGeometry x="575" y="255" width="485" height="200" as="geometry" />
        </mxCell>
        <mxCell id="Xv4ESuQ0aM9hgQVKN3r8-32" value="Primary Region" style="points=[[0,0],[0.25,0],[0.5,0],[0.75,0],[1,0],[1,0.25],[1,0.5],[1,0.75],[1,1],[0.75,1],[0.5,1],[0.25,1],[0,1],[0,0.75],[0,0.5],[0,0.25]];outlineConnect=0;gradientColor=none;html=1;whiteSpace=wrap;fontSize=12;fontStyle=0;container=1;pointerEvents=0;collapsible=0;recursiveResize=0;shape=mxgraph.aws4.group;grIcon=mxgraph.aws4.group_region;strokeColor=#00A4A6;fillColor=none;verticalAlign=top;align=left;spacingLeft=30;fontColor=#147EBA;dashed=1;" parent="Xv4ESuQ0aM9hgQVKN3r8-31" vertex="1">
          <mxGeometry x="20" y="30" width="210" height="150" as="geometry" />
        </mxCell>
        <mxCell id="Xv4ESuQ0aM9hgQVKN3r8-33" value="" style="sketch=0;points=[[0,0,0],[0.25,0,0],[0.5,0,0],[0.75,0,0],[1,0,0],[0,1,0],[0.25,1,0],[0.5,1,0],[0.75,1,0],[1,1,0],[0,0.25,0],[0,0.5,0],[0,0.75,0],[1,0.25,0],[1,0.5,0],[1,0.75,0]];outlineConnect=0;fontColor=#232F3E;fillColor=#8C4FFF;strokeColor=#ffffff;dashed=0;verticalLabelPosition=bottom;verticalAlign=top;align=center;html=1;fontSize=12;fontStyle=0;aspect=fixed;shape=mxgraph.aws4.resourceIcon;resIcon=mxgraph.aws4.vpc;" parent="Xv4ESuQ0aM9hgQVKN3r8-32" vertex="1">
          <mxGeometry x="23.75" y="34.02999999999997" width="40" height="40" as="geometry" />
        </mxCell>
        <mxCell id="Xv4ESuQ0aM9hgQVKN3r8-34" value="" style="sketch=0;outlineConnect=0;fontColor=#232F3E;gradientColor=none;fillColor=#7AA116;strokeColor=none;dashed=0;verticalLabelPosition=bottom;verticalAlign=top;align=center;html=1;fontSize=12;fontStyle=0;aspect=fixed;pointerEvents=1;shape=mxgraph.aws4.backup_vault;" parent="Xv4ESuQ0aM9hgQVKN3r8-32" vertex="1">
          <mxGeometry x="83.75" y="34.02999999999997" width="40" height="40" as="geometry" />
        </mxCell>
        <mxCell id="Xv4ESuQ0aM9hgQVKN3r8-35" value="" style="sketch=0;outlineConnect=0;fontColor=#232F3E;gradientColor=none;fillColor=#8C4FFF;strokeColor=none;dashed=0;verticalLabelPosition=bottom;verticalAlign=top;align=center;html=1;fontSize=12;fontStyle=0;aspect=fixed;pointerEvents=1;shape=mxgraph.aws4.hosted_zone;" parent="Xv4ESuQ0aM9hgQVKN3r8-32" vertex="1">
          <mxGeometry x="23.75" y="92.5" width="40" height="39.49" as="geometry" />
        </mxCell>
        <mxCell id="Xv4ESuQ0aM9hgQVKN3r8-36" value="" style="sketch=0;outlineConnect=0;fontColor=#232F3E;gradientColor=none;fillColor=#DD344C;strokeColor=none;dashed=0;verticalLabelPosition=bottom;verticalAlign=top;align=center;html=1;fontSize=12;fontStyle=0;aspect=fixed;pointerEvents=1;shape=mxgraph.aws4.role;" parent="Xv4ESuQ0aM9hgQVKN3r8-32" vertex="1">
          <mxGeometry x="141.25" y="99.54999999999995" width="45" height="25.38" as="geometry" />
        </mxCell>
        <mxCell id="Xv4ESuQ0aM9hgQVKN3r8-37" value="" style="sketch=0;outlineConnect=0;fontColor=#232F3E;gradientColor=none;fillColor=#DD344C;strokeColor=none;dashed=0;verticalLabelPosition=bottom;verticalAlign=top;align=center;html=1;fontSize=12;fontStyle=0;aspect=fixed;pointerEvents=1;shape=mxgraph.aws4.data_encryption_key;" parent="Xv4ESuQ0aM9hgQVKN3r8-32" vertex="1">
          <mxGeometry x="146.25" y="30" width="35" height="44.03" as="geometry" />
        </mxCell>
        <mxCell id="Xv4ESuQ0aM9hgQVKN3r8-38" value="" style="sketch=0;outlineConnect=0;fontColor=#232F3E;gradientColor=none;fillColor=#7AA116;strokeColor=none;dashed=0;verticalLabelPosition=bottom;verticalAlign=top;align=center;html=1;fontSize=12;fontStyle=0;aspect=fixed;pointerEvents=1;shape=mxgraph.aws4.bucket;" parent="Xv4ESuQ0aM9hgQVKN3r8-32" vertex="1">
          <mxGeometry x="88.75" y="94.03999999999996" width="35" height="36.4" as="geometry" />
        </mxCell>
        <mxCell id="Xv4ESuQ0aM9hgQVKN3r8-39" value="Secondary Region" style="points=[[0,0],[0.25,0],[0.5,0],[0.75,0],[1,0],[1,0.25],[1,0.5],[1,0.75],[1,1],[0.75,1],[0.5,1],[0.25,1],[0,1],[0,0.75],[0,0.5],[0,0.25]];outlineConnect=0;gradientColor=none;html=1;whiteSpace=wrap;fontSize=12;fontStyle=0;container=1;pointerEvents=0;collapsible=0;recursiveResize=0;shape=mxgraph.aws4.group;grIcon=mxgraph.aws4.group_region;strokeColor=#00A4A6;fillColor=none;verticalAlign=top;align=left;spacingLeft=30;fontColor=#147EBA;dashed=1;" parent="Xv4ESuQ0aM9hgQVKN3r8-31" vertex="1">
          <mxGeometry x="255" y="30" width="210" height="150" as="geometry" />
        </mxCell>
        <mxCell id="Xv4ESuQ0aM9hgQVKN3r8-40" value="" style="sketch=0;points=[[0,0,0],[0.25,0,0],[0.5,0,0],[0.75,0,0],[1,0,0],[0,1,0],[0.25,1,0],[0.5,1,0],[0.75,1,0],[1,1,0],[0,0.25,0],[0,0.5,0],[0,0.75,0],[1,0.25,0],[1,0.5,0],[1,0.75,0]];outlineConnect=0;fontColor=#232F3E;fillColor=#8C4FFF;strokeColor=#ffffff;dashed=0;verticalLabelPosition=bottom;verticalAlign=top;align=center;html=1;fontSize=12;fontStyle=0;aspect=fixed;shape=mxgraph.aws4.resourceIcon;resIcon=mxgraph.aws4.vpc;" parent="Xv4ESuQ0aM9hgQVKN3r8-39" vertex="1">
          <mxGeometry x="23.75" y="34.02999999999997" width="40" height="40" as="geometry" />
        </mxCell>
        <mxCell id="Xv4ESuQ0aM9hgQVKN3r8-41" value="" style="sketch=0;outlineConnect=0;fontColor=#232F3E;gradientColor=none;fillColor=#7AA116;strokeColor=none;dashed=0;verticalLabelPosition=bottom;verticalAlign=top;align=center;html=1;fontSize=12;fontStyle=0;aspect=fixed;pointerEvents=1;shape=mxgraph.aws4.backup_vault;" parent="Xv4ESuQ0aM9hgQVKN3r8-39" vertex="1">
          <mxGeometry x="83.75" y="34.02999999999997" width="40" height="40" as="geometry" />
        </mxCell>
        <mxCell id="Xv4ESuQ0aM9hgQVKN3r8-42" value="" style="sketch=0;outlineConnect=0;fontColor=#232F3E;gradientColor=none;fillColor=#8C4FFF;strokeColor=none;dashed=0;verticalLabelPosition=bottom;verticalAlign=top;align=center;html=1;fontSize=12;fontStyle=0;aspect=fixed;pointerEvents=1;shape=mxgraph.aws4.hosted_zone;" parent="Xv4ESuQ0aM9hgQVKN3r8-39" vertex="1">
          <mxGeometry x="23.75" y="92.5" width="40" height="39.49" as="geometry" />
        </mxCell>
        <mxCell id="Xv4ESuQ0aM9hgQVKN3r8-43" value="" style="sketch=0;outlineConnect=0;fontColor=#232F3E;gradientColor=none;fillColor=#DD344C;strokeColor=none;dashed=0;verticalLabelPosition=bottom;verticalAlign=top;align=center;html=1;fontSize=12;fontStyle=0;aspect=fixed;pointerEvents=1;shape=mxgraph.aws4.role;" parent="Xv4ESuQ0aM9hgQVKN3r8-39" vertex="1">
          <mxGeometry x="141.25" y="99.54999999999995" width="45" height="25.38" as="geometry" />
        </mxCell>
        <mxCell id="Xv4ESuQ0aM9hgQVKN3r8-44" value="" style="sketch=0;outlineConnect=0;fontColor=#232F3E;gradientColor=none;fillColor=#DD344C;strokeColor=none;dashed=0;verticalLabelPosition=bottom;verticalAlign=top;align=center;html=1;fontSize=12;fontStyle=0;aspect=fixed;pointerEvents=1;shape=mxgraph.aws4.data_encryption_key;" parent="Xv4ESuQ0aM9hgQVKN3r8-39" vertex="1">
          <mxGeometry x="146.25" y="30" width="35" height="44.03" as="geometry" />
        </mxCell>
        <mxCell id="Xv4ESuQ0aM9hgQVKN3r8-45" value="" style="sketch=0;outlineConnect=0;fontColor=#232F3E;gradientColor=none;fillColor=#7AA116;strokeColor=none;dashed=0;verticalLabelPosition=bottom;verticalAlign=top;align=center;html=1;fontSize=12;fontStyle=0;aspect=fixed;pointerEvents=1;shape=mxgraph.aws4.bucket;" parent="Xv4ESuQ0aM9hgQVKN3r8-39" vertex="1">
          <mxGeometry x="88.75" y="94.03999999999996" width="35" height="36.4" as="geometry" />
        </mxCell>
        <mxCell id="Xv4ESuQ0aM9hgQVKN3r8-46" value="Stage Account" style="points=[[0,0],[0.25,0],[0.5,0],[0.75,0],[1,0],[1,0.25],[1,0.5],[1,0.75],[1,1],[0.75,1],[0.5,1],[0.25,1],[0,1],[0,0.75],[0,0.5],[0,0.25]];outlineConnect=0;gradientColor=none;html=1;whiteSpace=wrap;fontSize=12;fontStyle=0;container=1;pointerEvents=0;collapsible=0;recursiveResize=0;shape=mxgraph.aws4.group;grIcon=mxgraph.aws4.group_account;strokeColor=#CD2264;fillColor=none;verticalAlign=top;align=left;spacingLeft=30;fontColor=#CD2264;dashed=0;" parent="1" vertex="1">
          <mxGeometry x="575" y="490" width="485" height="200" as="geometry" />
        </mxCell>
        <mxCell id="Xv4ESuQ0aM9hgQVKN3r8-47" value="Primary Region" style="points=[[0,0],[0.25,0],[0.5,0],[0.75,0],[1,0],[1,0.25],[1,0.5],[1,0.75],[1,1],[0.75,1],[0.5,1],[0.25,1],[0,1],[0,0.75],[0,0.5],[0,0.25]];outlineConnect=0;gradientColor=none;html=1;whiteSpace=wrap;fontSize=12;fontStyle=0;container=1;pointerEvents=0;collapsible=0;recursiveResize=0;shape=mxgraph.aws4.group;grIcon=mxgraph.aws4.group_region;strokeColor=#00A4A6;fillColor=none;verticalAlign=top;align=left;spacingLeft=30;fontColor=#147EBA;dashed=1;" parent="Xv4ESuQ0aM9hgQVKN3r8-46" vertex="1">
          <mxGeometry x="20" y="30" width="210" height="150" as="geometry" />
        </mxCell>
        <mxCell id="Xv4ESuQ0aM9hgQVKN3r8-48" value="" style="sketch=0;points=[[0,0,0],[0.25,0,0],[0.5,0,0],[0.75,0,0],[1,0,0],[0,1,0],[0.25,1,0],[0.5,1,0],[0.75,1,0],[1,1,0],[0,0.25,0],[0,0.5,0],[0,0.75,0],[1,0.25,0],[1,0.5,0],[1,0.75,0]];outlineConnect=0;fontColor=#232F3E;fillColor=#8C4FFF;strokeColor=#ffffff;dashed=0;verticalLabelPosition=bottom;verticalAlign=top;align=center;html=1;fontSize=12;fontStyle=0;aspect=fixed;shape=mxgraph.aws4.resourceIcon;resIcon=mxgraph.aws4.vpc;" parent="Xv4ESuQ0aM9hgQVKN3r8-47" vertex="1">
          <mxGeometry x="23.75" y="34.02999999999997" width="40" height="40" as="geometry" />
        </mxCell>
        <mxCell id="Xv4ESuQ0aM9hgQVKN3r8-49" value="" style="sketch=0;outlineConnect=0;fontColor=#232F3E;gradientColor=none;fillColor=#7AA116;strokeColor=none;dashed=0;verticalLabelPosition=bottom;verticalAlign=top;align=center;html=1;fontSize=12;fontStyle=0;aspect=fixed;pointerEvents=1;shape=mxgraph.aws4.backup_vault;" parent="Xv4ESuQ0aM9hgQVKN3r8-47" vertex="1">
          <mxGeometry x="83.75" y="34.02999999999997" width="40" height="40" as="geometry" />
        </mxCell>
        <mxCell id="Xv4ESuQ0aM9hgQVKN3r8-50" value="" style="sketch=0;outlineConnect=0;fontColor=#232F3E;gradientColor=none;fillColor=#8C4FFF;strokeColor=none;dashed=0;verticalLabelPosition=bottom;verticalAlign=top;align=center;html=1;fontSize=12;fontStyle=0;aspect=fixed;pointerEvents=1;shape=mxgraph.aws4.hosted_zone;" parent="Xv4ESuQ0aM9hgQVKN3r8-47" vertex="1">
          <mxGeometry x="23.75" y="92.5" width="40" height="39.49" as="geometry" />
        </mxCell>
        <mxCell id="Xv4ESuQ0aM9hgQVKN3r8-51" value="" style="sketch=0;outlineConnect=0;fontColor=#232F3E;gradientColor=none;fillColor=#DD344C;strokeColor=none;dashed=0;verticalLabelPosition=bottom;verticalAlign=top;align=center;html=1;fontSize=12;fontStyle=0;aspect=fixed;pointerEvents=1;shape=mxgraph.aws4.role;" parent="Xv4ESuQ0aM9hgQVKN3r8-47" vertex="1">
          <mxGeometry x="141.25" y="99.54999999999995" width="45" height="25.38" as="geometry" />
        </mxCell>
        <mxCell id="Xv4ESuQ0aM9hgQVKN3r8-52" value="" style="sketch=0;outlineConnect=0;fontColor=#232F3E;gradientColor=none;fillColor=#DD344C;strokeColor=none;dashed=0;verticalLabelPosition=bottom;verticalAlign=top;align=center;html=1;fontSize=12;fontStyle=0;aspect=fixed;pointerEvents=1;shape=mxgraph.aws4.data_encryption_key;" parent="Xv4ESuQ0aM9hgQVKN3r8-47" vertex="1">
          <mxGeometry x="146.25" y="30" width="35" height="44.03" as="geometry" />
        </mxCell>
        <mxCell id="Xv4ESuQ0aM9hgQVKN3r8-53" value="" style="sketch=0;outlineConnect=0;fontColor=#232F3E;gradientColor=none;fillColor=#7AA116;strokeColor=none;dashed=0;verticalLabelPosition=bottom;verticalAlign=top;align=center;html=1;fontSize=12;fontStyle=0;aspect=fixed;pointerEvents=1;shape=mxgraph.aws4.bucket;" parent="Xv4ESuQ0aM9hgQVKN3r8-47" vertex="1">
          <mxGeometry x="88.75" y="94.03999999999996" width="35" height="36.4" as="geometry" />
        </mxCell>
        <mxCell id="Xv4ESuQ0aM9hgQVKN3r8-54" value="Primary Region" style="points=[[0,0],[0.25,0],[0.5,0],[0.75,0],[1,0],[1,0.25],[1,0.5],[1,0.75],[1,1],[0.75,1],[0.5,1],[0.25,1],[0,1],[0,0.75],[0,0.5],[0,0.25]];outlineConnect=0;gradientColor=none;html=1;whiteSpace=wrap;fontSize=12;fontStyle=0;container=1;pointerEvents=0;collapsible=0;recursiveResize=0;shape=mxgraph.aws4.group;grIcon=mxgraph.aws4.group_region;strokeColor=#00A4A6;fillColor=none;verticalAlign=top;align=left;spacingLeft=30;fontColor=#147EBA;dashed=1;" parent="Xv4ESuQ0aM9hgQVKN3r8-46" vertex="1">
          <mxGeometry x="255" y="30" width="210" height="150" as="geometry" />
        </mxCell>
        <mxCell id="Xv4ESuQ0aM9hgQVKN3r8-55" value="" style="sketch=0;points=[[0,0,0],[0.25,0,0],[0.5,0,0],[0.75,0,0],[1,0,0],[0,1,0],[0.25,1,0],[0.5,1,0],[0.75,1,0],[1,1,0],[0,0.25,0],[0,0.5,0],[0,0.75,0],[1,0.25,0],[1,0.5,0],[1,0.75,0]];outlineConnect=0;fontColor=#232F3E;fillColor=#8C4FFF;strokeColor=#ffffff;dashed=0;verticalLabelPosition=bottom;verticalAlign=top;align=center;html=1;fontSize=12;fontStyle=0;aspect=fixed;shape=mxgraph.aws4.resourceIcon;resIcon=mxgraph.aws4.vpc;" parent="Xv4ESuQ0aM9hgQVKN3r8-54" vertex="1">
          <mxGeometry x="23.75" y="34.02999999999997" width="40" height="40" as="geometry" />
        </mxCell>
        <mxCell id="Xv4ESuQ0aM9hgQVKN3r8-56" value="" style="sketch=0;outlineConnect=0;fontColor=#232F3E;gradientColor=none;fillColor=#7AA116;strokeColor=none;dashed=0;verticalLabelPosition=bottom;verticalAlign=top;align=center;html=1;fontSize=12;fontStyle=0;aspect=fixed;pointerEvents=1;shape=mxgraph.aws4.backup_vault;" parent="Xv4ESuQ0aM9hgQVKN3r8-54" vertex="1">
          <mxGeometry x="83.75" y="34.02999999999997" width="40" height="40" as="geometry" />
        </mxCell>
        <mxCell id="Xv4ESuQ0aM9hgQVKN3r8-57" value="" style="sketch=0;outlineConnect=0;fontColor=#232F3E;gradientColor=none;fillColor=#8C4FFF;strokeColor=none;dashed=0;verticalLabelPosition=bottom;verticalAlign=top;align=center;html=1;fontSize=12;fontStyle=0;aspect=fixed;pointerEvents=1;shape=mxgraph.aws4.hosted_zone;" parent="Xv4ESuQ0aM9hgQVKN3r8-54" vertex="1">
          <mxGeometry x="23.75" y="92.5" width="40" height="39.49" as="geometry" />
        </mxCell>
        <mxCell id="Xv4ESuQ0aM9hgQVKN3r8-58" value="" style="sketch=0;outlineConnect=0;fontColor=#232F3E;gradientColor=none;fillColor=#DD344C;strokeColor=none;dashed=0;verticalLabelPosition=bottom;verticalAlign=top;align=center;html=1;fontSize=12;fontStyle=0;aspect=fixed;pointerEvents=1;shape=mxgraph.aws4.role;" parent="Xv4ESuQ0aM9hgQVKN3r8-54" vertex="1">
          <mxGeometry x="141.25" y="99.54999999999995" width="45" height="25.38" as="geometry" />
        </mxCell>
        <mxCell id="Xv4ESuQ0aM9hgQVKN3r8-59" value="" style="sketch=0;outlineConnect=0;fontColor=#232F3E;gradientColor=none;fillColor=#DD344C;strokeColor=none;dashed=0;verticalLabelPosition=bottom;verticalAlign=top;align=center;html=1;fontSize=12;fontStyle=0;aspect=fixed;pointerEvents=1;shape=mxgraph.aws4.data_encryption_key;" parent="Xv4ESuQ0aM9hgQVKN3r8-54" vertex="1">
          <mxGeometry x="146.25" y="30" width="35" height="44.03" as="geometry" />
        </mxCell>
        <mxCell id="Xv4ESuQ0aM9hgQVKN3r8-60" value="" style="sketch=0;outlineConnect=0;fontColor=#232F3E;gradientColor=none;fillColor=#7AA116;strokeColor=none;dashed=0;verticalLabelPosition=bottom;verticalAlign=top;align=center;html=1;fontSize=12;fontStyle=0;aspect=fixed;pointerEvents=1;shape=mxgraph.aws4.bucket;" parent="Xv4ESuQ0aM9hgQVKN3r8-54" vertex="1">
          <mxGeometry x="88.75" y="94.03999999999996" width="35" height="36.4" as="geometry" />
        </mxCell>
        <mxCell id="Xv4ESuQ0aM9hgQVKN3r8-61" value="Development Account" style="points=[[0,0],[0.25,0],[0.5,0],[0.75,0],[1,0],[1,0.25],[1,0.5],[1,0.75],[1,1],[0.75,1],[0.5,1],[0.25,1],[0,1],[0,0.75],[0,0.5],[0,0.25]];outlineConnect=0;gradientColor=none;html=1;whiteSpace=wrap;fontSize=12;fontStyle=0;container=1;pointerEvents=0;collapsible=0;recursiveResize=0;shape=mxgraph.aws4.group;grIcon=mxgraph.aws4.group_account;strokeColor=#CD2264;fillColor=none;verticalAlign=top;align=left;spacingLeft=30;fontColor=#CD2264;dashed=0;" parent="1" vertex="1">
          <mxGeometry x="575" y="725" width="250" height="200" as="geometry" />
        </mxCell>
        <mxCell id="Xv4ESuQ0aM9hgQVKN3r8-62" value="Primary Region" style="points=[[0,0],[0.25,0],[0.5,0],[0.75,0],[1,0],[1,0.25],[1,0.5],[1,0.75],[1,1],[0.75,1],[0.5,1],[0.25,1],[0,1],[0,0.75],[0,0.5],[0,0.25]];outlineConnect=0;gradientColor=none;html=1;whiteSpace=wrap;fontSize=12;fontStyle=0;container=1;pointerEvents=0;collapsible=0;recursiveResize=0;shape=mxgraph.aws4.group;grIcon=mxgraph.aws4.group_region;strokeColor=#00A4A6;fillColor=none;verticalAlign=top;align=left;spacingLeft=30;fontColor=#147EBA;dashed=1;" parent="Xv4ESuQ0aM9hgQVKN3r8-61" vertex="1">
          <mxGeometry x="20" y="30" width="210" height="150" as="geometry" />
        </mxCell>
        <mxCell id="Xv4ESuQ0aM9hgQVKN3r8-63" value="" style="sketch=0;points=[[0,0,0],[0.25,0,0],[0.5,0,0],[0.75,0,0],[1,0,0],[0,1,0],[0.25,1,0],[0.5,1,0],[0.75,1,0],[1,1,0],[0,0.25,0],[0,0.5,0],[0,0.75,0],[1,0.25,0],[1,0.5,0],[1,0.75,0]];outlineConnect=0;fontColor=#232F3E;fillColor=#8C4FFF;strokeColor=#ffffff;dashed=0;verticalLabelPosition=bottom;verticalAlign=top;align=center;html=1;fontSize=12;fontStyle=0;aspect=fixed;shape=mxgraph.aws4.resourceIcon;resIcon=mxgraph.aws4.vpc;" parent="Xv4ESuQ0aM9hgQVKN3r8-62" vertex="1">
          <mxGeometry x="23.75" y="34.02999999999997" width="40" height="40" as="geometry" />
        </mxCell>
        <mxCell id="Xv4ESuQ0aM9hgQVKN3r8-64" value="" style="sketch=0;outlineConnect=0;fontColor=#232F3E;gradientColor=none;fillColor=#7AA116;strokeColor=none;dashed=0;verticalLabelPosition=bottom;verticalAlign=top;align=center;html=1;fontSize=12;fontStyle=0;aspect=fixed;pointerEvents=1;shape=mxgraph.aws4.backup_vault;" parent="Xv4ESuQ0aM9hgQVKN3r8-62" vertex="1">
          <mxGeometry x="83.75" y="34.02999999999997" width="40" height="40" as="geometry" />
        </mxCell>
        <mxCell id="Xv4ESuQ0aM9hgQVKN3r8-65" value="" style="sketch=0;outlineConnect=0;fontColor=#232F3E;gradientColor=none;fillColor=#8C4FFF;strokeColor=none;dashed=0;verticalLabelPosition=bottom;verticalAlign=top;align=center;html=1;fontSize=12;fontStyle=0;aspect=fixed;pointerEvents=1;shape=mxgraph.aws4.hosted_zone;" parent="Xv4ESuQ0aM9hgQVKN3r8-62" vertex="1">
          <mxGeometry x="23.75" y="92.5" width="40" height="39.49" as="geometry" />
        </mxCell>
        <mxCell id="Xv4ESuQ0aM9hgQVKN3r8-66" value="" style="sketch=0;outlineConnect=0;fontColor=#232F3E;gradientColor=none;fillColor=#DD344C;strokeColor=none;dashed=0;verticalLabelPosition=bottom;verticalAlign=top;align=center;html=1;fontSize=12;fontStyle=0;aspect=fixed;pointerEvents=1;shape=mxgraph.aws4.role;" parent="Xv4ESuQ0aM9hgQVKN3r8-62" vertex="1">
          <mxGeometry x="141.25" y="99.54999999999995" width="45" height="25.38" as="geometry" />
        </mxCell>
        <mxCell id="Xv4ESuQ0aM9hgQVKN3r8-67" value="" style="sketch=0;outlineConnect=0;fontColor=#232F3E;gradientColor=none;fillColor=#DD344C;strokeColor=none;dashed=0;verticalLabelPosition=bottom;verticalAlign=top;align=center;html=1;fontSize=12;fontStyle=0;aspect=fixed;pointerEvents=1;shape=mxgraph.aws4.data_encryption_key;" parent="Xv4ESuQ0aM9hgQVKN3r8-62" vertex="1">
          <mxGeometry x="146.25" y="30" width="35" height="44.03" as="geometry" />
        </mxCell>
        <mxCell id="Xv4ESuQ0aM9hgQVKN3r8-68" value="" style="sketch=0;outlineConnect=0;fontColor=#232F3E;gradientColor=none;fillColor=#7AA116;strokeColor=none;dashed=0;verticalLabelPosition=bottom;verticalAlign=top;align=center;html=1;fontSize=12;fontStyle=0;aspect=fixed;pointerEvents=1;shape=mxgraph.aws4.bucket;" parent="Xv4ESuQ0aM9hgQVKN3r8-62" vertex="1">
          <mxGeometry x="88.75" y="94.03999999999996" width="35" height="36.4" as="geometry" />
        </mxCell>
        <mxCell id="R1wrfTCuZAZl9XFfE9gW-1" value="Route 53&lt;div&gt;(centralized DNS)&lt;/div&gt;" style="sketch=0;points=[[0,0,0],[0.25,0,0],[0.5,0,0],[0.75,0,0],[1,0,0],[0,1,0],[0.25,1,0],[0.5,1,0],[0.75,1,0],[1,1,0],[0,0.25,0],[0,0.5,0],[0,0.75,0],[1,0.25,0],[1,0.5,0],[1,0.75,0]];outlineConnect=0;fontColor=#232F3E;fillColor=#8C4FFF;strokeColor=#ffffff;dashed=0;verticalLabelPosition=bottom;verticalAlign=top;align=center;html=1;fontSize=12;fontStyle=0;aspect=fixed;shape=mxgraph.aws4.resourceIcon;resIcon=mxgraph.aws4.route_53;" parent="1" vertex="1">
          <mxGeometry x="-165" y="910" width="60" height="60" as="geometry" />
        </mxCell>
        <mxCell id="sujflsgLyof8xT3oo5VT-1" value="Management Account" style="points=[[0,0],[0.25,0],[0.5,0],[0.75,0],[1,0],[1,0.25],[1,0.5],[1,0.75],[1,1],[0.75,1],[0.5,1],[0.25,1],[0,1],[0,0.75],[0,0.5],[0,0.25]];outlineConnect=0;gradientColor=none;html=1;whiteSpace=wrap;fontSize=12;fontStyle=0;container=1;pointerEvents=0;collapsible=0;recursiveResize=0;shape=mxgraph.aws4.group;grIcon=mxgraph.aws4.group_account;strokeColor=#CD2264;fillColor=none;verticalAlign=top;align=left;spacingLeft=30;fontColor=#CD2264;dashed=0;" vertex="1" parent="1">
          <mxGeometry x="300" y="30" width="240" height="150" as="geometry" />
        </mxCell>
        <mxCell id="sujflsgLyof8xT3oo5VT-2" value="AWS Control Tower" style="sketch=0;points=[[0,0,0],[0.25,0,0],[0.5,0,0],[0.75,0,0],[1,0,0],[0,1,0],[0.25,1,0],[0.5,1,0],[0.75,1,0],[1,1,0],[0,0.25,0],[0,0.5,0],[0,0.75,0],[1,0.25,0],[1,0.5,0],[1,0.75,0]];points=[[0,0,0],[0.25,0,0],[0.5,0,0],[0.75,0,0],[1,0,0],[0,1,0],[0.25,1,0],[0.5,1,0],[0.75,1,0],[1,1,0],[0,0.25,0],[0,0.5,0],[0,0.75,0],[1,0.25,0],[1,0.5,0],[1,0.75,0]];outlineConnect=0;fontColor=#232F3E;fillColor=#E7157B;strokeColor=#ffffff;dashed=0;verticalLabelPosition=bottom;verticalAlign=top;align=center;html=1;fontSize=12;fontStyle=0;aspect=fixed;shape=mxgraph.aws4.resourceIcon;resIcon=mxgraph.aws4.control_tower;" vertex="1" parent="sujflsgLyof8xT3oo5VT-1">
          <mxGeometry x="30" y="45" width="60" height="60" as="geometry" />
        </mxCell>
        <mxCell id="sujflsgLyof8xT3oo5VT-3" value="AWS Organizations" style="sketch=0;points=[[0,0,0],[0.25,0,0],[0.5,0,0],[0.75,0,0],[1,0,0],[0,1,0],[0.25,1,0],[0.5,1,0],[0.75,1,0],[1,1,0],[0,0.25,0],[0,0.5,0],[0,0.75,0],[1,0.25,0],[1,0.5,0],[1,0.75,0]];points=[[0,0,0],[0.25,0,0],[0.5,0,0],[0.75,0,0],[1,0,0],[0,1,0],[0.25,1,0],[0.5,1,0],[0.75,1,0],[1,1,0],[0,0.25,0],[0,0.5,0],[0,0.75,0],[1,0.25,0],[1,0.5,0],[1,0.75,0]];outlineConnect=0;fontColor=#232F3E;fillColor=#E7157B;strokeColor=#ffffff;dashed=0;verticalLabelPosition=bottom;verticalAlign=top;align=center;html=1;fontSize=12;fontStyle=0;aspect=fixed;shape=mxgraph.aws4.resourceIcon;resIcon=mxgraph.aws4.organizations;" vertex="1" parent="sujflsgLyof8xT3oo5VT-1">
          <mxGeometry x="150" y="45" width="60" height="60" as="geometry" />
        </mxCell>
        <mxCell id="X1DQYdyPL7o4AyvZVpMt-1" value="Launch and manage" style="text;html=1;align=left;verticalAlign=middle;whiteSpace=wrap;rounded=0;" vertex="1" parent="1">
          <mxGeometry x="760" y="50" width="120" height="30" as="geometry" />
        </mxCell>
        <mxCell id="X1DQYdyPL7o4AyvZVpMt-2" value="" style="endArrow=none;html=1;rounded=0;" edge="1" parent="1">
          <mxGeometry width="50" height="50" relative="1" as="geometry">
            <mxPoint x="765" y="80" as="sourcePoint" />
            <mxPoint x="860" y="80" as="targetPoint" />
          </mxGeometry>
        </mxCell>
        <mxCell id="X1DQYdyPL7o4AyvZVpMt-3" value="Manage" style="text;html=1;align=left;verticalAlign=middle;whiteSpace=wrap;rounded=0;" vertex="1" parent="1">
          <mxGeometry x="760" y="89" width="120" height="30" as="geometry" />
        </mxCell>
        <mxCell id="X1DQYdyPL7o4AyvZVpMt-4" value="" style="endArrow=none;html=1;rounded=0;dashed=1;" edge="1" parent="1">
          <mxGeometry width="50" height="50" relative="1" as="geometry">
            <mxPoint x="765" y="119" as="sourcePoint" />
            <mxPoint x="860" y="119" as="targetPoint" />
          </mxGeometry>
        </mxCell>
        <mxCell id="X1DQYdyPL7o4AyvZVpMt-5" value="Delegate" style="text;html=1;align=left;verticalAlign=middle;whiteSpace=wrap;rounded=0;" vertex="1" parent="1">
          <mxGeometry x="760" y="129" width="120" height="30" as="geometry" />
        </mxCell>
        <mxCell id="X1DQYdyPL7o4AyvZVpMt-6" value="" style="endArrow=none;html=1;rounded=0;dashed=1;dashPattern=12 12;" edge="1" parent="1">
          <mxGeometry width="50" height="50" relative="1" as="geometry">
            <mxPoint x="765" y="159" as="sourcePoint" />
            <mxPoint x="860" y="159" as="targetPoint" />
          </mxGeometry>
        </mxCell>
        <mxCell id="JkV1mj7-0JUoLTIJEFuj-1" style="edgeStyle=orthogonalEdgeStyle;rounded=0;orthogonalLoop=1;jettySize=auto;html=1;startArrow=classic;startFill=1;endArrow=none;endFill=0;dashed=1;dashPattern=12 12;" edge="1" parent="1">
          <mxGeometry relative="1" as="geometry">
            <mxPoint x="-10" y="360" as="targetPoint" />
            <mxPoint x="111" y="589" as="sourcePoint" />
          </mxGeometry>
        </mxCell>
        <mxCell id="JkV1mj7-0JUoLTIJEFuj-2" style="edgeStyle=orthogonalEdgeStyle;rounded=0;orthogonalLoop=1;jettySize=auto;html=1;dashed=1;dashPattern=12 12;" edge="1" parent="1">
          <mxGeometry relative="1" as="geometry">
            <mxPoint x="111" y="352" as="targetPoint" />
            <mxPoint x="480" y="75" as="sourcePoint" />
            <Array as="points">
              <mxPoint x="480" />
              <mxPoint x="-9" />
              <mxPoint x="-9" y="352" />
            </Array>
          </mxGeometry>
        </mxCell>
      </root>
    </mxGraphModel>
  </diagram>
</mxfile>
